<svg width="1024" height="1024" viewBox="0 0 1024 1024" fill="none" xmlns="http://www.w3.org/2000/svg">
<path d="M271.207 377.438C282.642 396.615 293.948 415.472 314.499 426.931C326.856 423.865 336.934 420.915 349.659 418.359C341.912 425.891 336.336 430.963 333.426 441.735C335.454 440.663 337.229 439.769 339.357 438.896C346.808 435.841 353.042 430.332 359.97 426.192C368.775 420.931 377.531 417.876 387.204 414.781C391.077 413.502 393.963 411.935 398.169 411.082C401.456 414.303 405.65 420.514 408.565 424.495C431.237 424.247 450.018 421.802 473.637 423.978C474.41 416.335 474.235 407.607 474.175 399.891C476.897 407.007 479.232 417.157 481.186 424.664C490.133 425.471 506.102 427.653 514.266 430.833C516.172 440.225 515.768 455.95 515.859 465.834C516.224 506.152 507.606 547.281 500.011 586.878C496.157 606.82 492.672 626.827 489.559 646.894C484.154 681.356 478.036 718.292 486.175 752.472C478.754 759.035 471.424 765.703 464.188 772.47C458.688 757.364 433.215 720.723 418.074 713.721C411.626 710.739 398.847 713.591 391.513 714.681C373.624 717.333 339.488 723.21 322.296 717.975C316.774 716.248 311.771 713.166 307.741 709.016C302.615 703.685 297.31 693.966 293.756 687.325C272.851 648.249 245.735 607.363 249.217 561.059C249.837 552.807 250.911 544.486 251.784 536.243L252.622 535.509C252.706 545.402 256.886 552.117 263.813 558.932C269.495 564.519 277.777 569.472 277.904 578.47C278.039 588.068 267.981 590.03 271.68 601.646C274.085 609.199 277.498 613.461 282.381 619.682C282.977 620.441 283.211 620.984 282.841 621.744C280.886 621.718 278.764 619.4 277.309 618.037C280.767 628.502 280.803 638.226 290.304 644.924C292.737 646.643 295.399 649.864 298.443 649.638L299.105 649.082C298.576 646.821 295.507 645.184 293.474 643.786C294.221 643.174 298.915 643.3 301.095 642.658C305.902 641.234 308.425 639.984 312.422 637.041C308.638 638.2 304.518 638.673 301.265 639.602C289.717 642.901 276.769 632.978 289.725 623.797C293.879 623.089 299.951 621.774 303.762 621.24C311.55 620.151 325.374 622.859 332.656 625.742C326.759 627.031 324.155 627.725 319.275 631.676C322.846 630.66 340.483 625.355 342.579 623.367C342.819 622.013 342.479 618.401 340.783 618.393C337.643 618.367 334.778 619.647 331.54 618.349C319.169 614.225 298.283 593.958 285.193 604.524C281.862 599.853 280.091 596.958 275.605 593.32C278.731 586.106 283.429 580.784 280.06 572.805C277.302 566.272 271.111 562.387 266.321 557.361C260.926 551.7 253.452 540.87 256.236 532.696C257.834 528.004 269.57 521.94 273.528 517.525C284.233 505.579 294.808 485.837 287.667 469.721C283.197 459.633 274.269 452.348 264.222 448.372C262.569 447.718 261.274 447.257 259.541 447.365L259.277 447.927C260.565 449.903 264.001 452.144 266.124 453.098C279.535 459.123 286.862 466.356 288.489 481.839C282.225 474.503 274.256 466.841 264.136 466.083C257.443 465.581 253.538 467.957 247.601 469.657C243.18 463.968 240.916 458.05 238.513 451.317C252.454 443.099 256.093 443.282 271.21 446.507C267.094 441.39 264.899 440.386 258.694 438.131C269.977 432.953 282.252 429.996 294.426 427.86C283.727 412.053 276.647 395.66 271.207 377.438Z" fill="#FEFEFE" style="fill:#FEFEFE;fill:color(display-p3 0.9961 0.9961 0.9961);fill-opacity:1;"/>
<path d="M358.571 447.137C356.099 448.273 352.289 451.203 349.657 450.671L349.434 449.99C350.426 446.943 352.236 445.434 353.972 443.065C361.863 432.297 369.916 431.589 382.506 430.107C393.765 428.78 404.69 432.356 414.917 436.7C417.26 437.695 421.611 439.474 423.532 441.083C419.361 441.302 398.941 429.765 389.57 432.064C381.124 434.136 371.866 436.032 364.109 440.124L364.263 441.302C383.499 433.018 391.637 433.219 412.264 440.703C416.101 442.095 442.323 455.281 444.146 457.03C445.076 458.371 445.007 458.733 444.439 460.379C449.515 461.129 453.138 459.533 457.762 457.808C453.943 460.436 452.78 460.873 448.558 462.443C455.083 464.017 456.851 463.947 463.678 463.764C455.06 467.682 453.411 466.951 444.362 472.701C447.675 472.684 450.989 472.725 454.301 472.822C451.854 473.661 447.411 475.298 445.07 475.866C441.22 476.8 440.737 476.427 436.79 478.043C439.262 478.057 446.152 477.561 447.69 479.62C446.163 480.875 439.287 478.966 436.169 480.435C438.145 481.506 441.638 481.37 444.103 482.765C441.623 484.37 436.697 482.199 432.813 484.815L432.846 485.522C434.546 486.622 438.529 487.33 440.863 487.96C437.848 488.188 429.787 487.435 427.957 489.723C428.994 491.8 431.59 491.421 432.83 493.631C431.666 493.978 424.399 493.299 420.529 493.765L425.811 499.245C422.258 498.204 416.04 495.285 413.53 498.49C413.152 500.219 413.937 501.412 414.665 503.118C411.8 501.005 408.28 497.768 404.736 499.628C404.098 500.739 403.755 501.698 402.641 502.224C399.783 501.755 400.533 498.511 396.68 499.423C394.919 500.718 395.995 501.82 394.409 503.305C393.192 502.88 392.944 501.179 391.971 499.403C389.149 498.063 388.904 501.855 386.348 502.376C384.726 500.951 386.253 501.893 385.33 499.228L384.207 498.965C382.924 499.301 382.353 500.215 381.438 501.24L380.998 501.738L380.427 501.704C379.918 499.893 379.779 498.804 379.51 496.926C378.349 498.129 376.819 500.055 375.27 500.143C375.031 499.132 374.829 498.412 374.515 497.421L373.474 496.942C370.633 497.188 368.921 498.813 366.634 500.516C367.558 498.571 368.687 496.531 369.697 494.613C362.473 490.686 361.402 490.433 353.553 492.719C363.559 485.571 365.002 491.386 375.205 493.854C390.471 497.546 407.297 496.239 421.224 488.648C429.342 484.225 433.204 479.669 435.857 470.761C431.524 466.916 421.97 461.78 416.462 459.618C420.147 467.07 419.827 467.196 412.156 469.934C413.549 471.248 415.829 472.943 417.382 474.174C415.848 479.474 411.293 484.893 406.629 487.794C402.378 490.425 397.238 491.209 392.396 489.963C385.453 488.135 380.575 481.514 377.202 475.588C378.72 474.553 379.896 473.923 380.981 472.434L380.706 471.871C379.967 471.647 379.192 471.397 378.459 471.149C370.489 468.448 377.304 454.813 379.449 450.057C371.452 454.754 362.956 460.836 360.323 470.338C360.131 471.029 360.377 470.633 359.734 471.231L359.025 470.809C358.238 468.405 359.495 465.134 360.266 462.742C357.372 465.093 355.724 466.139 352.509 468.09C354.98 462.374 358.032 459.553 362.194 455.069C357.865 457.789 356.188 458.747 351.343 460.342C353.152 459.012 358.789 455.528 359.762 453.88C358.508 453.458 357.76 454.301 355.771 454.703C355.965 453.284 359.121 450.005 360.278 449.027L358.571 447.137Z" fill="black" style="fill:black;fill-opacity:1;"/>
<path d="M364.108 440.124L364.263 441.301C360.3 444.079 354.218 448.751 350.051 450.642C353.824 446.169 359.126 443.067 364.108 440.124Z" fill="#ECECED" style="fill:#ECECED;fill:color(display-p3 0.9255 0.9255 0.9294);fill-opacity:1;"/>
<path d="M437.16 456.328C439.434 456.439 441.87 456.771 444.146 457.03C445.076 458.371 445.007 458.733 444.439 460.379C441.276 459.171 439.922 458.193 437.16 456.328Z" fill="#ECECED" style="fill:#ECECED;fill:color(display-p3 0.9255 0.9255 0.9294);fill-opacity:1;"/>
<path d="M358.571 447.137C362.113 445.327 365.772 442.877 369.341 441.649C366.529 443.723 364.417 445.23 361.859 447.582L360.277 449.026L358.571 447.137Z" fill="#ECECED" style="fill:#ECECED;fill:color(display-p3 0.9255 0.9255 0.9294);fill-opacity:1;"/>
<path d="M378.816 432.713C379.523 432.682 380.631 432.779 381.372 432.818C374.266 433.861 364.15 436.63 358.335 441.017L356.397 442.733L356.173 442.573C359.332 435.711 372.158 434.295 378.816 432.713Z" fill="#BCBDBE" style="fill:#BCBDBE;fill:color(display-p3 0.7373 0.7412 0.7451);fill-opacity:1;"/>
<path d="M281.843 551.175C290.618 552.039 297.369 553.883 297.454 563.911C296.15 562.999 294.485 560.729 293.108 559.409C289.4 555.846 286.202 553.81 281.843 551.175Z" fill="black" style="fill:black;fill-opacity:1;"/>
<path d="M295.711 625.108C297.229 625.394 297.198 625.321 298.436 626.384C299.05 628.928 296.781 631.424 295.461 634.753L294.795 635.218L293.925 634.922C291.618 631.945 293.82 627.643 295.711 625.108Z" fill="black" style="fill:black;fill-opacity:1;"/>
<path d="M260.882 460.895C269.269 460.315 276.841 462.917 283.809 467.428L276.608 465.027C265.442 462.097 263.899 461.354 252.703 463.282C255.583 462.323 257.94 461.656 260.882 460.895Z" fill="black" style="fill:black;fill-opacity:1;"/>
<path d="M436.394 115.032C449.655 114.525 463.468 116.284 476.339 119.335C527.668 131.504 567.069 172.824 593.392 216.593C610.934 245.757 624.971 283.102 631.894 316.479C632.606 321.024 634.938 327.753 633.778 332.227C632.727 336.291 624.337 335.819 623.312 340.693C621.813 347.786 632.089 350.033 637.005 352.517C647.468 357.804 654.239 361.542 661.04 371.082C655.563 367.015 648.671 363.977 642.721 360.755C630.699 354.242 617.939 354.43 618.413 337.261C618.547 332.445 628.35 333.073 628.463 327.749C629.184 315.632 623.742 312.406 612.519 315.786C603.494 318.84 584.237 315.093 585.688 329.699C587.229 345.233 600.645 324.734 598.235 349.062C596.584 360.235 583.894 371.156 575.972 379.703C578.591 372 581.392 367.134 587.03 361.153C590.417 357.037 596.211 352.996 594.13 346.97C592.041 340.938 583.364 343.618 581.336 337.979C579.464 332.77 579.116 326.844 577.97 321.432C576.728 315.572 575.546 309.881 574.07 304.089C558.018 239.666 528.424 188.749 470.611 153.379C437.92 133.378 403.525 129.226 365.989 135.262C356.981 136.71 348.14 139.684 339.243 141.89C370.839 128.281 401.756 116.955 436.394 115.032Z" fill="#FEFEFE" style="fill:#FEFEFE;fill:color(display-p3 0.9961 0.9961 0.9961);fill-opacity:1;"/>
<path d="M492.606 772.396C493.174 772.961 494.172 775.626 494.475 776.516C500.216 793.719 510.34 803.715 524.442 814.272C537.228 823.853 544.993 829.461 559.89 835.699C555.508 839.206 550.096 842.24 545.693 845.713C524.772 862.217 501.937 871.254 477.917 882.514C471.406 885.657 464.418 889.247 457.542 891.37C453.491 875.99 449.163 869.171 440.497 855.983C432.932 844.467 424.41 831.979 418.12 819.833C445.111 820.232 450.537 813.5 468.145 794.6C475.082 787.155 484.694 778.834 492.606 772.396Z" fill="#FEFEFE" style="fill:#FEFEFE;fill:color(display-p3 0.9961 0.9961 0.9961);fill-opacity:1;"/>
<path d="M483.456 805.812C489.03 806.958 487.513 811.711 485.258 815.08C490.931 824.443 496.947 833.311 503.077 842.375C504.698 844.771 506.527 847.497 507.848 850.062C505.004 851.582 503.726 852.372 501.112 854.26C488.541 848.769 476.037 842.232 463.818 835.989C466.447 839.597 475.807 854.512 477.061 858.21C478.935 857.181 483.475 854.863 484.895 855.553C493.945 859.946 477.385 866.596 475.053 867.69C471.186 869.505 470.509 870.516 467.885 869.405C464.691 865.273 466.033 864.639 469.238 861.309C463.92 851.79 459.426 843.538 453.486 834.088C450.78 836.341 448.815 837.144 445.994 834.47C443.925 829.865 452.888 825.467 456.229 822.867C459.377 824.907 462.72 826.183 466.001 827.898C474.798 832.499 485.183 836.762 493.362 842.24C489.109 835.79 481.562 825.515 478.388 818.787C475.847 820.063 470.961 823.918 469.018 820.067C466.221 814.524 479.772 807.861 483.456 805.812Z" fill="black" style="fill:black;fill-opacity:1;"/>
<path d="M710.035 183.612C720.519 196.004 737.057 213.384 745.461 226.82C771.902 269.105 796.01 339.316 802.638 388.608L801.569 388.21C794.99 354.332 785.305 321.131 772.636 289.027C763.88 266.522 755.667 246.542 741.27 226.908C738.217 222.742 735.19 218.025 731.659 214.275C743.893 234.211 729.348 238.9 739.268 258.098C735.19 253.388 731.906 248.387 727.807 243.734C731.533 253.309 736.984 262.702 741.335 272.159C747.763 286.136 753.235 299.882 758.868 314.178L757.987 314.585C749.348 291.807 737.965 270.166 724.089 250.14C726.022 257.8 728.905 265.418 730.63 272.442C728.354 268.104 724.028 261.105 721.157 257.016C719.872 270.506 727.468 284.615 732.549 297.017C737.34 308.709 741.77 320.547 745.83 332.513L744.979 332.852C736.41 310.609 721.249 272.863 703.928 257.213C708.293 268.583 714.069 280.955 718.834 292.355C725.227 307.692 731.177 323.209 736.68 338.886L735.872 339.407C725.587 311.909 712.189 284.973 698.725 258.858C695.108 263.736 692.719 266.097 688.159 270.144C681.405 267.3 674.682 264.458 667.889 261.695C663.694 259.989 656.597 258.093 653.04 256.021C664.975 279.607 675.902 303.689 685.792 328.202C705.023 376.847 719.199 426.736 733.726 476.926C738.938 494.93 745.791 513.584 750.577 531.203C760.15 566.958 766.99 603.387 771.042 640.179C772.601 653.649 774.343 670.131 774.881 683.57L774.286 684.586L773.869 684.625C772.058 649.078 761.843 595.204 753.604 559.939C751.038 548.736 748.097 537.619 744.801 526.606C743.481 522.291 742.074 518.037 740.627 513.697C715.312 437.812 699.507 357.998 663.685 285.959C661.214 280.99 656.78 275.512 653.318 271.133C654.856 277.786 657.223 284.588 659.321 291.123C654.756 284.206 650.291 277.017 644.189 271.383C639.586 267.131 632.05 262.274 625.553 262.739C622.886 262.93 622.626 263.368 620.889 265.41C619.208 262.385 616.997 256.329 615.642 252.925C625.618 252.673 629.844 253.729 639.503 255.979C638.708 239.441 638.556 237.77 632.098 222.633C636.624 228.003 645.08 242.403 648.728 248.546C660.133 249.902 667.894 253.91 677.735 255.404C681.735 252.723 686.039 247.759 689.105 244.082C682.447 232.636 674.964 221.936 667.42 211.062C675.642 219.07 681.896 229.303 689.618 237.481C690.378 235.07 690.899 232.365 691.446 229.879C695.95 229.928 700.914 231.028 705.353 231.926C703.242 222.749 689.744 206.842 683.312 198.739L683.755 197.795C688.788 202.978 693.891 208.144 698.834 213.409C704.979 219.955 711.129 227.059 718.412 232.411C713.97 225.712 709.461 219.057 704.888 212.447C701.683 207.878 698.543 204.104 695.776 199.269C696.597 199.396 709.548 215.434 711.186 217.332C715.264 222.052 718.842 228.495 722.473 233.591C722.486 227.084 722.929 220.653 723.055 214.163C723.277 203.156 715.034 193.037 710.035 183.612Z" fill="#FEFEFE" style="fill:#FEFEFE;fill:color(display-p3 0.9961 0.9961 0.9961);fill-opacity:1;"/>
<path d="M585.405 845.935L585.857 846.247C583.85 848.965 572.584 858.51 569.158 861.874C562.991 867.717 557.093 874.072 551.256 880.227C544.91 886.921 539.473 894.027 534.639 901.866C533.167 904.258 531.182 907.236 529.271 909.328C522.383 916.868 514.687 923.731 507.486 930.984C501.681 936.775 496.545 943.087 490.963 949.073C469.687 949.719 444.891 949.151 423.333 949.077C426.13 945.813 428.757 942.292 431.662 938.906C437.591 932.608 467.229 896.531 473.36 898.155C474.428 902.283 468.713 909.198 466.406 912.597C475.962 906.446 485.411 901.697 495.096 895.928C503.426 890.962 511.56 884.299 520.072 879.572C529.314 874.445 538.626 869.692 547.933 864.6C560.267 857.85 571.785 848.991 585.405 845.935Z" fill="#FEFEFE" style="fill:#FEFEFE;fill:color(display-p3 0.9961 0.9961 0.9961);fill-opacity:1;"/>
<path d="M430.428 210.729C454.741 236.504 472.404 263.89 481.785 298.444C477.806 294.002 473.38 289.768 469.125 285.57C470.123 290.914 470.154 295.617 470.674 300.989C471.158 306.007 471.924 311.338 472.661 316.339L471.638 317.955C469.897 311.385 463.453 289.354 460.202 284.525C460.267 293.806 460.244 303.087 460.134 312.367C454.621 302.128 450.969 294.415 444.029 284.634C445.396 290.133 449.072 314.132 448.751 319.642C448.366 315.609 441.816 296.087 439.924 291.9C436.428 293.792 432.618 295.213 428.921 296.695C429.991 302.34 431.096 308.859 431.672 314.529C430.4 309.797 428.741 304.533 426.776 300.051C418.42 293.547 409.84 292.25 399.767 289.964C398.315 285.051 397.019 278.597 395.874 273.495C401.973 271.04 411.896 267.237 417.326 264.53C416.42 258.446 415.041 252.183 413.801 246.135C416.654 252.564 419.748 262.172 422.165 268.996C425.408 266.353 429.728 262.169 432.971 259.223C432.843 250.929 428.838 239.698 425.75 231.882L426.272 230.989C428.131 235.351 433.395 249.705 435.697 252.144C437.232 252.528 437.73 251.745 439.06 250.77C441.043 251.574 441.63 260.391 442.31 263.019C445.011 246.934 439.171 224.298 430.428 210.729Z" fill="#FEFEFE" style="fill:#FEFEFE;fill:color(display-p3 0.9961 0.9961 0.9961);fill-opacity:1;"/>
<path d="M425.707 289.526C427.107 291.48 427.337 294.156 427.163 296.499L426.903 296.414C426.286 295.097 425.928 291.2 425.707 289.526Z" fill="#BCBDBE" style="fill:#BCBDBE;fill:color(display-p3 0.7373 0.7412 0.7451);fill-opacity:1;"/>
<path d="M515.051 949.098C516.884 933.541 540.224 895.949 551.264 882.883C561.765 870.456 563.368 869.744 576.727 861.188C601.201 845.513 622.942 839.553 651.394 836.489C652.228 836.884 652.393 836.893 653.109 837.448C630.734 840.092 608.892 853.718 591.798 868.034C580.419 877.562 567.516 895.576 561.162 909.176C561.47 905.061 562.79 898.415 563.524 894.152C551.429 911.72 546.956 928.288 543.433 949.081C534.13 949.237 524.385 949.103 515.051 949.098Z" fill="#FEFEFE" style="fill:#FEFEFE;fill:color(display-p3 0.9961 0.9961 0.9961);fill-opacity:1;"/>
<path d="M498.294 196.649C518.504 212.919 529.314 228.348 540.059 251.521C543.425 249.123 549.24 245.787 551.95 250.682C555.564 257.217 557.922 264.308 560.645 271.234C554.626 267.803 551.303 265.52 544.515 263.923C545.31 267.982 546.235 271.684 547.243 275.684C538.726 256.908 530.448 241.593 516.75 225.983L516.641 226.666C516.077 230.118 513.505 237.119 513.414 238.7C512.963 246.54 520.685 258.452 523.338 266.207C519.104 259.492 516.563 254.549 510.279 249.611C510.921 253.518 511.334 254.952 512.355 258.375C514.044 264.031 522.682 283.16 522.357 287.631C517.853 277.62 514.648 264.744 505.905 257.118C505.776 259.683 505.683 262.441 505.46 264.985C504.555 262.749 503.62 259.509 501.482 258.475C499.592 258.863 499.791 259.34 499.258 261.189L498.97 261.336L498.601 259.876C494.35 260.658 498.725 275.08 499.402 278.187C497.384 274.064 493.232 265.296 490.298 262.246C484.529 261.788 478.124 261.911 472.281 261.907C469.247 256.782 465.94 251.411 463.029 246.248C467.262 242.485 471.814 236.802 474.905 231.985C473.333 228.682 462.754 210.745 462.617 209.793C464.771 211.646 472.111 222.778 474.132 225.541C479.044 223.933 481.419 223.368 486.574 223.11C484.888 217.523 482.303 207.585 479.225 203.144L479.609 202.386C485.278 208.385 490.281 215.055 495.648 221.395C499.493 218.637 507.043 213.661 510.239 210.831C506.443 205.951 502.458 201.22 498.294 196.649Z" fill="#FEFEFE" style="fill:#FEFEFE;fill:color(display-p3 0.9961 0.9961 0.9961);fill-opacity:1;"/>
<path d="M812.848 605.692C814.186 607.407 819.146 619.739 820.162 622.2C830.655 647.585 842.364 676.035 842.867 703.847C843.445 735.752 831.167 764.132 809.009 786.813C805.274 790.142 801.656 793.537 797.63 796.501C811.632 768.555 817.195 746.591 820.939 715.424C823.319 695.599 824.318 678.553 822.229 658.455C821.048 647.164 819.311 635.934 817.035 624.809C815.732 618.402 814.06 612.108 812.848 605.692Z" fill="#FEFEFE" style="fill:#FEFEFE;fill:color(display-p3 0.9961 0.9961 0.9961);fill-opacity:1;"/>
<path d="M212.595 266.051C218.768 256.452 229.019 243.612 236.881 235.448C236.826 236.281 218.198 263.592 216.175 267.255L215.834 267.878C219.384 268.058 220.379 268.59 223.369 270.221C231.056 259.171 239.169 247.823 247.8 237.533L248.012 238.298C238.763 250.668 229.52 267.638 222.002 281.211C228.258 278.023 230.626 277.413 237.813 278.039C240.714 273.895 244.404 266.844 247.239 263.574C236.193 287.532 226.774 306.907 218.781 332.409L218.145 331.137C219.948 325.845 221.495 313.26 221.89 307.502C217.746 310.976 215.535 314.16 212.978 318.993C211.81 313.852 212.438 309.606 211.836 304.505C210.554 306.254 209.112 308.353 207.68 309.942C208.212 304.084 209.793 299.002 210.284 293.252C200.283 309.272 191.505 334.982 186.975 353.236L185.846 352.341C188.205 339.358 195.463 312.583 201.184 301.012C200.041 302.247 198.802 304.098 197.797 305.502L182.125 304.535C184.782 295.026 194.961 272.234 201.424 265.116C205.306 264.986 208.8 265.333 212.595 266.051Z" fill="#FEFEFE" style="fill:#FEFEFE;fill:color(display-p3 0.9961 0.9961 0.9961);fill-opacity:1;"/>
<path d="M313.221 277.293C318.271 275.844 326.202 275.015 330.55 272.379C334.201 270.166 343.326 235.84 344.929 230.196C341.85 255.719 344.015 283.881 347.041 309.297C344.746 302.368 340.814 293.532 337.665 286.835C338.026 293.254 338.558 298.7 339.322 305.087C337.493 301.593 333.51 292.453 332.177 288.866C326.338 290.137 317.838 293.233 311.216 294.932C310.425 299.386 309.714 304.282 308.299 308.542C308.213 303.986 308.171 299.43 308.173 294.873C299.882 295.574 293.913 296.955 285.791 298.723C283.166 295.406 280.322 292.149 277.574 288.925C280.436 279.651 282.843 272.858 286.53 263.875C295.566 267.908 300.811 272.078 310.525 275.396C311.898 265.338 319.627 242.323 323.073 232.796L323.579 234.155C322.684 235.925 321.657 240.556 320.999 242.7C317.52 254.034 315.965 265.933 313.221 277.293Z" fill="#FEFEFE" style="fill:#FEFEFE;fill:color(display-p3 0.9961 0.9961 0.9961);fill-opacity:1;"/>
<path d="M585.835 705.999L586.283 706.121C586.934 707.805 587.043 710.218 587.368 712.076C588.936 720.975 591.125 729.761 593.197 738.56C584.55 750.562 568.267 764.235 552.776 756.044C548.415 752.997 541.149 741.407 542.626 736.215C544.359 730.134 557.592 723.436 562.847 720.202C570.522 715.475 578.309 711.034 585.835 705.999Z" fill="#FEFEFE" style="fill:#FEFEFE;fill:color(display-p3 0.9961 0.9961 0.9961);fill-opacity:1;"/>
<path d="M285.827 764.991C286.502 769.892 284.695 782.728 283.84 787.941C278.587 819.985 260.998 870.79 220.023 864.696C214.353 863.853 210.628 861.952 206.097 858.558C202.395 855.202 200.548 852.441 198.386 848.031C212.592 849.329 231.787 848.239 244.25 840.847C262.511 830.017 274.351 804.679 280.596 785.05C282.611 778.717 284.091 771.45 285.827 764.991Z" fill="#FEFEFE" style="fill:#FEFEFE;fill:color(display-p3 0.9961 0.9961 0.9961);fill-opacity:1;"/>
<path d="M382.64 242.683C383.797 244.373 385.688 251.024 386.349 253.212C391.222 269.357 396.812 288.666 398.412 305.493C396.345 300.523 392.85 293.587 389.529 289.496C379.296 288.769 371.017 289.102 361.046 288.933C359.85 288.466 359.385 287.266 358.676 286.09C358.518 285.828 358.039 285.438 357.785 285.204C356.258 287.532 357.643 296.67 358.008 299.497C354.585 291.223 351.828 281.133 348.85 272.59C347.212 267.894 347.418 261.702 347.647 256.784C362.925 258.63 370.134 258.861 385.603 262.247C385.484 255.851 384.048 248.926 382.64 242.683Z" fill="#FEFEFE" style="fill:#FEFEFE;fill:color(display-p3 0.9961 0.9961 0.9961);fill-opacity:1;"/>
<path d="M244.426 290.688C252.852 284.958 260.408 282.482 266.371 273.436C272.194 264.601 277.258 255.061 283.317 246.456C290.435 236.346 298.187 226.683 305.343 216.556L305.586 216.857C289.199 244.611 276.354 278.823 266.668 309.639C265.449 313.519 264.723 318.36 263.052 321.973C263.564 313.621 262.943 305.312 263.236 296.916C262.011 298.992 261.466 299.873 259.969 301.77C260.717 297.388 260.996 294.623 262.317 290.3C257.114 294.217 252.893 294.199 247.699 297.301C245.732 300.518 244.867 303.357 243.61 306.87C239.232 306.915 234.854 306.881 230.478 306.769C232.01 304.005 233.534 300.424 234.791 297.484C243.712 276.613 256.235 258.648 268.767 239.931L269.174 240.801C262.052 251.667 248.095 278.508 244.426 290.688Z" fill="#FEFEFE" style="fill:#FEFEFE;fill:color(display-p3 0.9961 0.9961 0.9961);fill-opacity:1;"/>
<path d="M577.709 614.812C578.426 615.94 578.665 628.416 578.773 630.738C579.251 642.988 580.141 655.22 581.448 667.409C581.931 671.941 582.434 677.923 583.325 682.251C579.928 684.599 573.088 688.128 569.205 690.346C562.474 694.218 555.972 698.481 549.744 703.121C549.271 703.547 547.103 705.022 546.474 705.47C556.758 675.331 566.66 644.694 577.709 614.812Z" fill="#FEFEFE" style="fill:#FEFEFE;fill:color(display-p3 0.9961 0.9961 0.9961);fill-opacity:1;"/>
<path d="M232.079 222.028L232.673 222.999C216.375 238.385 199.605 261.85 189.837 281.993C178.867 304.611 167.594 329.821 159.029 353.368C161.531 336.928 169.731 314.135 176.285 298.659C172.363 302.079 169.971 305.507 166.94 309.678C169.388 304.467 171.275 298.976 173.202 293.556C171.354 295.748 169.462 298.236 167.669 300.5C170.069 291.727 175.351 278.568 180.521 270.943C183.532 266.504 193.457 258.426 197.661 254.183C208.831 242.908 220.099 232.451 232.079 222.028Z" fill="#FEFEFE" style="fill:#FEFEFE;fill:color(display-p3 0.9961 0.9961 0.9961);fill-opacity:1;"/>
<path d="M351.204 305.732C352.589 307.716 358.014 326.965 359.247 330.785C361.617 338.057 364.228 345.25 367.073 352.351C372.308 365.268 378.436 377.803 385.415 389.867C387.908 394.214 394.139 403.413 395.864 407.238L395.433 407.712C391.439 408.451 387.026 409.075 382.982 409.197C365.298 379.144 355.649 340.08 351.204 305.732Z" fill="#FEFEFE" style="fill:#FEFEFE;fill:color(display-p3 0.9961 0.9961 0.9961);fill-opacity:1;"/>
<path d="M623.337 455.748C640.028 453.849 651.298 459.338 661.587 472.098C657.226 471.416 652.54 472.395 648.136 473.026C644.063 470.313 642.456 469.657 637.752 468.32C626.217 465.806 617.73 467.422 607.307 472.483C603.637 470.511 601.435 469.674 597.405 468.851C605.244 460.671 612.236 457.301 623.337 455.748Z" fill="#FEFEFE" style="fill:#FEFEFE;fill:color(display-p3 0.9961 0.9961 0.9961);fill-opacity:1;"/>
<path d="M260.857 477.682L261.954 477.835C262.989 479.128 262.513 486.198 262.672 488.855C264.286 489.918 265.498 490.741 267.01 491.939L266.869 492.697L265.292 493.771C263.163 498.598 270.454 508.24 274.326 510.932L269.957 513.571C256.909 519.218 255.363 501.068 255.09 492.572C254.868 485.667 253.493 480.119 260.857 477.682Z" fill="#FEFEFE" style="fill:#FEFEFE;fill:color(display-p3 0.9961 0.9961 0.9961);fill-opacity:1;"/>
<path d="M434.601 902.556C435.606 902.591 435.167 902.413 435.913 903.094C434.97 912.879 414.791 932.03 408.365 939.501C406.413 941.767 401.241 947.592 398.887 949.342L397.635 948.964L397.436 948.447C403.525 935.525 422.873 910.252 434.601 902.556Z" fill="#FEFEFE" style="fill:#FEFEFE;fill:color(display-p3 0.9961 0.9961 0.9961);fill-opacity:1;"/>
<path d="M377.544 932.135C379.056 932.604 379.123 932.564 380.498 933.476C375.33 939.067 371.89 942.839 367.499 949.094L346.813 949.099C345.463 949.107 345.314 949.107 343.994 948.847C344.322 948.448 344.601 947.849 345.149 947.762C354.658 946.199 369.294 937.5 377.544 932.135Z" fill="#FEFEFE" style="fill:#FEFEFE;fill:color(display-p3 0.9961 0.9961 0.9961);fill-opacity:1;"/>
<path d="M715.937 578.427L716.671 578.366C721.687 613.874 723.35 641.907 715.411 677.28L714.595 676.872C714.808 674.168 715.29 670.795 715.711 668.087C720.358 638.204 718.886 608.491 715.937 578.427Z" fill="#FEFEFE" style="fill:#FEFEFE;fill:color(display-p3 0.9961 0.9961 0.9961);fill-opacity:1;"/>
<path d="M382.547 933.276L390.098 932.977C387.937 938.442 385.948 943.447 384.126 949.025L379.91 949.12L371.887 949.072C374.709 943.755 378.288 937.565 382.547 933.276Z" fill="#FEFEFE" style="fill:#FEFEFE;fill:color(display-p3 0.9961 0.9961 0.9961);fill-opacity:1;"/>
<path d="M695.707 643.604L696.241 643.53L696.515 647.706C696.554 669.38 687.685 706.081 677.084 724.838L676.732 724.764C677.344 721.8 682.825 708.738 684.298 704.041C690.274 684.963 695.655 663.737 695.707 643.604Z" fill="#ECECED" style="fill:#ECECED;fill:color(display-p3 0.9255 0.9255 0.9294);fill-opacity:1;"/>
<path d="M292.56 602.389C297.418 603.708 304.712 605.835 308.379 609.191C305.981 609.221 303.75 609.425 301.368 609.625C296.546 609.916 291.918 610.428 287.68 607.441C286.946 606.122 287.057 606.812 287.386 605.297C288.674 603.773 290.649 603.196 292.56 602.389Z" fill="#FEFEFE" style="fill:#FEFEFE;fill:color(display-p3 0.9961 0.9961 0.9961);fill-opacity:1;"/>
<path d="M695.706 643.605C695.224 636.217 695.945 629.032 695.546 621.21C695.111 612.659 694.986 601.347 693.591 592.769C693.353 591.298 693.496 589.666 694.073 588.446C694.212 594.61 695.259 600.396 695.806 606.56C696.48 614.907 696.927 623.272 697.153 631.646C697.266 634.936 697.266 644.542 696.514 647.707L696.241 643.531L695.706 643.605Z" fill="#7B7B7C" style="fill:#7B7B7C;fill:color(display-p3 0.4824 0.4824 0.4863);fill-opacity:1;"/>
<path d="M770.429 346.913C773.552 353.484 787.919 402.48 787.671 407.824C786.52 407.13 785.07 398.897 784.7 397.201C781.009 380.179 774.529 363.591 769.843 347.108L770.429 346.913Z" fill="#323233" style="fill:#323233;fill:color(display-p3 0.1961 0.1961 0.2000);fill-opacity:1;"/>
<path d="M252.814 530.218C253.179 527.448 253.774 519.592 255.533 517.833C257.121 518.22 258.091 521.406 258.699 521.289C261.204 520.807 263.274 519.605 265.894 518.993C261.915 521.988 255.989 525.773 253.93 530.266L252.814 530.218Z" fill="#FEFEFE" style="fill:#FEFEFE;fill:color(display-p3 0.9961 0.9961 0.9961);fill-opacity:1;"/>
<path d="M647.043 553.849C646.148 554.387 643.464 556.775 642.291 557.652C636.928 561.671 632.554 563.837 626.196 565.717C618.943 567.861 606.309 567.436 599.816 563.607C603.525 563.703 608.111 565.535 612.181 565.834C626.756 566.906 636.133 561.845 646.925 553.059L647.043 553.849Z" fill="#7B7B7C" style="fill:#7B7B7C;fill:color(display-p3 0.4824 0.4824 0.4863);fill-opacity:1;"/>
<path d="M622.551 375.909C630.656 375.341 639.602 376.558 645.852 382.249L645.804 382.768C636.71 377.593 635.09 376.971 624.497 376.859C619.316 376.917 614.2 378.011 609.448 380.076C607.92 380.729 602.274 383.425 601.092 383.521C607.659 378.62 614.565 376.818 622.551 375.909Z" fill="#BCBDBE" style="fill:#BCBDBE;fill:color(display-p3 0.7373 0.7412 0.7451);fill-opacity:1;"/>
<path d="M736.679 338.886C738.716 343.393 740.11 348.347 741.825 352.97C746.321 365.064 749.482 377.074 753.1 389.367L752.375 389.729C752.075 387.376 749.838 380.234 749.078 377.724C745.083 364.815 740.679 352.036 735.871 339.407L736.679 338.886Z" fill="#959798" style="fill:#959798;fill:color(display-p3 0.5843 0.5922 0.5961);fill-opacity:1;"/>
<path d="M651.394 836.488C656.862 835.321 687.042 834.34 692.81 835.377C691.051 835.403 686.091 835.238 684.875 835.842L685.075 836.215L684.705 836.228C679.368 836.384 673.856 835.703 668.271 835.907C663.029 836.102 658.03 837.183 653.11 837.448C652.393 836.892 652.228 836.883 651.394 836.488Z" fill="#959798" style="fill:#959798;fill:color(display-p3 0.5843 0.5922 0.5961);fill-opacity:1;"/>
<path d="M758.867 314.178C762.998 324.991 766.85 335.906 770.429 346.913L769.842 347.109C767.085 337.351 761.838 324.031 757.986 314.585L758.867 314.178Z" fill="#BCBDBE" style="fill:#BCBDBE;fill:color(display-p3 0.7373 0.7412 0.7451);fill-opacity:1;"/>
<path d="M275.141 594.358C276.316 595.261 278.285 600.869 279.684 602.71C281.033 604.485 281.733 605.206 283.304 606.816C277.352 605.696 275.318 599.68 275.141 594.358Z" fill="#ECECED" style="fill:#ECECED;fill:color(display-p3 0.9255 0.9255 0.9294);fill-opacity:1;"/>
<path d="M802.638 388.607C804.336 396.315 805.496 405.772 806.811 413.708L806.39 413.796C805.317 406.155 803.055 395.959 801.569 388.21L802.638 388.607Z" fill="#BCBDBE" style="fill:#BCBDBE;fill:color(display-p3 0.7373 0.7412 0.7451);fill-opacity:1;"/>
<path d="M774.881 683.57C775.671 689.053 775.719 696.983 775.25 702.596C775.076 697.769 773.682 688.254 773.869 684.625L774.286 684.586L774.881 683.57Z" fill="#BCBDBE" style="fill:#BCBDBE;fill:color(display-p3 0.7373 0.7412 0.7451);fill-opacity:1;"/>
<path d="M296.893 613.119L297.317 613.414C298.136 615.875 294.689 617.499 292.813 618.263C292.142 617.208 292.057 617.251 291.936 616.036C292.654 614.959 295.601 613.818 296.893 613.119Z" fill="#ECECED" style="fill:#ECECED;fill:color(display-p3 0.9255 0.9255 0.9294);fill-opacity:1;"/>
<path d="M806.811 413.708C807.528 415.363 809.639 428.833 809.348 430.922C808.436 429.535 806.642 416.33 806.39 413.797L806.811 413.708Z" fill="#323233" style="fill:#323233;fill:color(display-p3 0.1961 0.1961 0.2000);fill-opacity:1;"/>
<path d="M715.936 578.427C715.081 576.07 713.943 567.05 714.373 564.584C715.072 566.455 716.666 576.322 716.67 578.366L715.936 578.427Z" fill="#323233" style="fill:#323233;fill:color(display-p3 0.1961 0.1961 0.2000);fill-opacity:1;"/>
<path d="M268.766 239.93C269.811 237.674 274.638 231.184 276.247 228.948C276.397 228.862 276.548 228.775 276.699 228.688L276.292 229.019L276.459 229.195C275.133 231.543 270.898 238.708 269.174 240.8L268.766 239.93Z" fill="#323233" style="fill:#323233;fill:color(display-p3 0.1961 0.1961 0.2000);fill-opacity:1;"/>
<path d="M241.864 214.028L242.189 214.694C239.121 217.311 235.538 220.226 232.673 222.999L232.079 222.028C235.279 219.286 238.541 216.619 241.864 214.028Z" fill="#BCBDBE" style="fill:#BCBDBE;fill:color(display-p3 0.7373 0.7412 0.7451);fill-opacity:1;"/>
<path d="M745.83 332.514C747.437 336.611 749.122 341.257 750.03 345.563C747.989 341.477 746.738 336.966 744.979 332.852L745.83 332.514Z" fill="#BCBDBE" style="fill:#BCBDBE;fill:color(display-p3 0.7373 0.7412 0.7451);fill-opacity:1;"/>
<path d="M247.8 237.533C248.892 235.286 252.745 230.772 254.514 228.779C253.623 230.989 249.655 236.678 248.012 238.298L247.8 237.533Z" fill="#323233" style="fill:#323233;fill:color(display-p3 0.1961 0.1961 0.2000);fill-opacity:1;"/>
<path d="M288.678 611.156C291.278 610.944 292.843 611.026 295.403 611.495L295.761 612.046C292.652 612.741 290.782 613.804 288.678 611.156Z" fill="#ECECED" style="fill:#ECECED;fill:color(display-p3 0.9255 0.9255 0.9294);fill-opacity:1;"/>
<path d="M753.1 389.367C754.173 392.954 755.241 396.826 755.541 400.56C754.342 397.819 753.248 392.8 752.375 389.73L753.1 389.367Z" fill="#323233" style="fill:#323233;fill:color(display-p3 0.1961 0.1961 0.2000);fill-opacity:1;"/>
<path d="M661.271 203.632C663.507 204.244 666.074 208.504 667.52 210.545C665.019 209.699 662.643 205.858 661.271 203.632Z" fill="#323233" style="fill:#323233;fill:color(display-p3 0.1961 0.1961 0.2000);fill-opacity:1;"/>
<path d="M715.411 677.281C714.616 680.788 714.008 683.167 712.888 686.57C712.74 685.233 714.164 678.266 714.594 676.873L715.411 677.281Z" fill="#BCBDBE" style="fill:#BCBDBE;fill:color(display-p3 0.7373 0.7412 0.7451);fill-opacity:1;"/>
<path d="M472.661 316.339C473.221 319.75 473.625 322.156 473.782 325.584C473.005 323.058 472.291 320.515 471.639 317.955L472.661 316.339Z" fill="#ECECED" style="fill:#ECECED;fill:color(display-p3 0.9255 0.9255 0.9294);fill-opacity:1;"/>
<path d="M184.72 359.416C184.876 357.258 185.457 354.516 185.846 352.341L186.975 353.236C186.549 355.022 185.733 358.037 185.522 359.762L184.72 359.416Z" fill="#ECECED" style="fill:#ECECED;fill:color(display-p3 0.9255 0.9255 0.9294);fill-opacity:1;"/>
<path d="M683.311 198.739C680.775 195.967 678.269 193.262 675.863 190.373C678.473 192.454 681.331 195.414 683.754 197.795L683.311 198.739Z" fill="#BCBDBE" style="fill:#BCBDBE;fill:color(display-p3 0.7373 0.7412 0.7451);fill-opacity:1;"/>
<path d="M479.225 203.144C477.221 200.92 475.207 198.324 473.418 195.922L473.743 195.957C476.491 198.506 477.343 199.412 479.609 202.387L479.225 203.144Z" fill="#666665" style="fill:#666665;fill:color(display-p3 0.4000 0.4000 0.3961);fill-opacity:1;"/>
<path d="M241.864 214.028C242.389 213.424 247.889 209.211 248.875 208.439L248.776 209.695C246.192 211.24 244.545 213.108 242.189 214.694L241.864 214.028Z" fill="#666665" style="fill:#666665;fill:color(display-p3 0.4000 0.4000 0.3961);fill-opacity:1;"/>
<path d="M456.554 202C458.538 203.314 461.141 207.226 462.473 209.27C460.017 208.233 457.917 204.291 456.554 202Z" fill="#323233" style="fill:#323233;fill:color(display-p3 0.1961 0.1961 0.2000);fill-opacity:1;"/>
<path d="M425.75 231.882C424.721 229.51 423.988 227.959 423.357 225.417L423.442 225.713L424.042 225.686C424.849 227.178 425.631 229.364 426.271 230.988L425.75 231.882Z" fill="#666665" style="fill:#666665;fill:color(display-p3 0.4000 0.4000 0.3961);fill-opacity:1;"/>
<path d="M323.074 232.795C323.5 231.491 324.132 229.32 324.675 228.145L325.225 228.887L325.269 227.731C325.435 229.031 324.123 232.856 323.579 234.154L323.074 232.795Z" fill="#666665" style="fill:#666665;fill:color(display-p3 0.4000 0.4000 0.3961);fill-opacity:1;"/>
<path d="M215.58 341.431C216.341 338.066 217.303 334.503 218.146 331.137L218.781 332.409C217.779 335.748 216.87 338.179 215.58 341.431Z" fill="#7B7B7C" style="fill:#7B7B7C;fill:color(display-p3 0.4824 0.4824 0.4863);fill-opacity:1;"/>
<path d="M185.522 359.762C185.227 361.247 184.45 365.81 183.813 366.943C183.352 365.478 184.355 361.121 184.72 359.416L185.522 359.762Z" fill="#7B7B7C" style="fill:#7B7B7C;fill:color(display-p3 0.4824 0.4824 0.4863);fill-opacity:1;"/>
<path d="M646.925 553.06C647.958 551.892 648.931 550.511 650.347 550.017C650.156 551.536 648.267 552.851 647.042 553.85L646.925 553.06Z" fill="#323233" style="fill:#323233;fill:color(display-p3 0.1961 0.1961 0.2000);fill-opacity:1;"/>
<path d="M252.815 530.218L253.93 530.266C253.423 532.097 252.999 533.63 252.622 535.509L251.784 536.243C252.097 534.229 252.44 532.223 252.815 530.218Z" fill="#BCBDBE" style="fill:#BCBDBE;fill:color(display-p3 0.7373 0.7412 0.7451);fill-opacity:1;"/>
<path d="M240.007 472.71C242.422 472.269 244.978 472.604 247.337 473.197C244.666 473.531 242.378 474.029 240.007 472.71Z" fill="#323233" style="fill:#323233;fill:color(display-p3 0.1961 0.1961 0.2000);fill-opacity:1;"/>
<path d="M248.875 208.439C249.882 207.38 250.397 206.989 251.521 206.113L252.398 206.133L252.428 205.898C251.79 207.594 250.179 208.598 248.776 209.695L248.875 208.439Z" fill="#323233" style="fill:#323233;fill:color(display-p3 0.1961 0.1961 0.2000);fill-opacity:1;"/>
<path d="M673.908 729.817L674.243 730.143C674.138 731.614 673.031 732.991 672.188 734.384L671.889 734.323C671.958 732.973 673.187 731.146 673.908 729.817Z" fill="#323233" style="fill:#323233;fill:color(display-p3 0.1961 0.1961 0.2000);fill-opacity:1;"/>
</svg>
