<svg width="1024" height="1024" viewBox="0 0 1024 1024" fill="none" xmlns="http://www.w3.org/2000/svg">
<path d="M520.005 99.2783C536.548 99.4142 556.204 102.969 572.13 106.459C626.023 118.266 675.7 142.843 714.019 183.038C752.35 222.225 769.814 267.675 788.394 318.043C802.04 355.035 808.681 397.834 816.138 436.807C820.416 458.249 825.093 479.609 830.179 500.874C836.606 529.416 843.612 557.827 851.19 586.09C866.191 640.676 884.124 693.322 882.647 750.812C881.327 802.315 864.011 844.295 826.652 880.154C827.569 879.725 828.476 879.265 829.366 878.774C863.52 860.035 892.259 816.418 904.003 779.643C910.678 758.75 910.612 729.177 903.941 708.389C901.644 701.226 898.335 695.044 894.722 688.438C912.068 705.297 921.835 724.554 925.813 748.268C932.302 788.168 920.098 828.842 892.711 858.594C883.243 868.795 872.25 877.089 860.433 884.36C856.181 886.952 851.829 889.374 847.382 891.614C839.734 895.417 830.843 898.273 826.235 905.336C821.541 912.529 820.259 918.484 822.396 926.845C822.856 928.651 822.756 932.171 821.405 933.664C820.611 934.541 819.655 935.018 818.443 934.975C814.513 934.831 814.018 932.887 813.224 929.614C812.103 924.991 811.652 920.425 810.396 915.841C804.981 896.077 795.504 882.981 782.37 868.23C756.403 839.069 729.333 836.607 692.256 835.409C686.488 834.372 656.308 835.353 650.84 836.521C651.361 836.767 651.621 836.863 651.918 837.036C652.096 837.14 652.287 837.271 652.556 837.479C657.476 837.215 662.475 836.134 667.717 835.938C673.302 835.734 678.814 836.416 684.151 836.26L684.521 836.247C684.916 836.264 685.311 836.286 685.706 836.304C725.159 839.073 761.866 857.504 787.643 887.49C797.367 898.607 806.061 911.421 807.13 925.824C808.051 929.279 811.247 939.32 803.708 937.028C800.281 935.987 798.136 924.704 795.243 920.559C778.657 896.754 758.683 872.289 734.175 856.298C725.814 852.413 710.466 847.664 701.185 847.334C682.383 846.67 653.141 847.407 637.502 857.951C613.589 874.069 594.823 895.426 575.883 916.635C564.182 929.74 561.701 932.8 557.923 949.094H542.882C546.404 928.31 550.878 911.746 562.97 894.185C562.236 898.447 560.916 905.093 560.607 909.208C566.961 895.608 579.864 877.594 591.243 868.065C608.337 853.749 630.179 840.124 652.555 837.48C651.838 836.925 651.673 836.915 650.84 836.521C622.388 839.585 600.646 845.545 576.173 861.22C562.814 869.775 561.211 870.488 550.71 882.915C539.678 895.971 516.367 933.514 514.502 949.094H490.419C495.997 943.111 501.131 936.803 506.933 931.016C514.133 923.762 521.829 916.899 528.717 909.359C530.628 907.267 532.613 904.289 534.085 901.897C538.919 894.058 544.356 886.952 550.701 880.259C556.538 874.104 562.436 867.749 568.604 861.906C572.03 858.542 583.296 848.997 585.303 846.279L584.851 845.966C571.231 849.022 559.713 857.882 547.379 864.632C538.072 869.724 528.76 874.477 519.518 879.604C511.005 884.331 502.871 890.994 494.541 895.96C484.857 901.729 475.407 906.477 465.852 912.628C468.159 909.229 473.873 902.315 472.806 898.187C466.675 896.564 437.039 932.638 431.108 938.938C428.208 942.318 425.584 945.834 422.792 949.094H398.689C401.174 947.073 405.952 941.691 407.811 939.533C414.237 932.063 434.416 912.91 435.359 903.126C434.614 902.444 435.051 902.623 434.047 902.588C422.319 910.284 402.972 935.557 396.882 948.479L397.081 948.996L397.405 949.094H381.894L383.571 949.056C385.393 943.478 387.383 938.473 389.544 933.008L381.992 933.308C377.736 937.594 374.158 943.778 371.337 949.094H366.967C371.347 942.858 374.784 939.089 379.943 933.508C378.569 932.596 378.502 932.635 376.99 932.166C368.74 937.531 354.104 946.23 344.595 947.793C344.047 947.88 343.768 948.48 343.439 948.879C344.035 948.996 344.392 949.059 344.729 949.094H245.187C246.431 949.054 247.65 948.999 248.825 948.922C253.222 948.631 262.119 939.641 265.074 936.606C287.937 913.118 297.379 882.242 303.229 850.823C291.823 874.672 276.434 894.049 247.996 895.842C215.962 897.86 191.607 880.601 190.391 847.272C165.261 840.996 143.479 831.359 126.206 810.862C110.117 791.767 104.911 760.3 107.433 735.813C108.338 740.219 108.852 745.511 109.744 750.173C112.443 764.289 117.059 775.402 126.494 786.323C138.887 800.67 160.305 810.853 179.061 812.42C193.972 813.666 208.254 807.177 219.275 797.254C237.444 780.72 248.436 757.748 249.911 733.235C244.121 748.298 236.654 760.782 225.006 772.159C210.842 785.989 191.276 796.824 171.041 796.516C155.928 796.303 141.532 790.034 131.086 779.117C115.868 763.113 111.933 743.992 112.588 722.757C113.371 697.341 122.073 680.494 140.537 662.992C135.239 673.206 131.948 679.413 130.305 691.372C126.895 716.184 136.314 747.234 164.811 750.89C173.422 751.997 181.948 750.394 188.72 744.612C196.467 737.954 201.898 727.31 204.692 717.548C212.537 690.144 216.012 660.388 219.366 632.138C224.73 585.552 229.371 538.888 233.287 492.164C220.191 484.836 206.423 471.144 198.677 458.469C195.964 454.031 193.206 448.496 190.678 443.837L190.796 444.323C194.664 459.707 202.542 479.424 213.825 490.77C216.855 493.816 220.709 496.112 224.38 498.288C208.499 494.903 192.863 488.52 179.995 478.601C109.864 424.536 146.691 307.883 189.406 248.609C196.64 238.684 204.726 229.407 213.57 220.883C259.056 176.708 325.984 140.433 386.287 121.654C427.015 108.972 477.255 98.9273 520.005 99.2783ZM285.273 765.022C283.538 771.482 282.056 778.749 280.041 785.082C273.797 804.711 261.957 830.049 243.696 840.879C231.233 848.271 212.037 849.36 197.831 848.062C199.993 852.473 201.841 855.234 205.543 858.589C210.074 861.983 213.799 863.885 219.469 864.728C260.444 870.822 278.033 820.016 283.286 787.973C284.14 782.759 285.948 769.923 285.273 765.022ZM812.294 605.724C813.506 612.139 815.178 618.434 816.48 624.841C818.756 635.966 820.493 647.196 821.675 658.486C823.764 678.584 822.765 695.631 820.385 715.455C816.641 746.622 811.078 768.587 797.076 796.533C801.102 793.568 804.72 790.174 808.455 786.845C830.613 764.164 842.891 735.783 842.313 703.878C841.81 676.066 830.1 647.616 819.607 622.231C818.591 619.769 813.632 607.438 812.294 605.724ZM270.652 377.471C276.092 395.692 283.173 412.085 293.871 427.892C281.698 430.028 269.423 432.985 258.14 438.162C264.345 440.417 266.54 441.422 270.656 446.539C255.539 443.314 251.899 443.131 237.958 451.349C240.361 458.082 242.626 464 247.046 469.688C252.984 467.989 256.889 465.613 263.582 466.114C273.701 466.872 281.671 474.535 287.935 481.87C286.308 466.388 278.981 459.155 265.569 453.13C263.446 452.176 260.01 449.935 258.723 447.959L258.986 447.396C260.719 447.289 262.015 447.75 263.667 448.403C273.714 452.38 282.642 459.665 287.112 469.753C294.253 485.869 283.679 505.611 272.974 517.557C269.016 521.971 257.28 528.035 255.682 532.728C252.897 540.901 260.372 551.732 265.768 557.393C270.557 562.419 276.748 566.304 279.506 572.837C282.875 580.815 278.176 586.137 275.051 593.352C279.536 596.989 281.308 599.885 284.639 604.556C297.729 593.99 318.615 614.257 330.986 618.381C334.224 619.679 337.089 618.399 340.229 618.425C341.924 618.434 342.265 622.045 342.024 623.399C339.928 625.388 322.292 630.691 318.721 631.707C323.6 627.757 326.205 627.063 332.102 625.773C324.82 622.891 310.997 620.183 303.208 621.272C299.397 621.806 293.325 623.122 289.171 623.829C276.215 633.01 289.163 642.933 300.71 639.634C303.963 638.705 308.083 638.231 311.867 637.072C307.871 640.015 305.348 641.266 300.541 642.689C298.361 643.332 293.667 643.206 292.92 643.818C294.952 645.216 298.022 646.853 298.551 649.114L297.889 649.67C294.845 649.895 292.183 646.675 289.75 644.956C280.249 638.258 280.212 628.534 276.755 618.068C278.21 619.431 280.331 621.749 282.286 621.775C282.657 621.016 282.422 620.473 281.827 619.714C276.943 613.493 273.53 609.231 271.125 601.678C267.427 590.062 277.485 588.1 277.35 578.502C277.223 569.503 268.941 564.551 263.259 558.964C256.332 552.149 252.152 545.434 252.067 535.541C252.444 533.662 252.869 532.13 253.376 530.298C255.435 525.805 261.361 522.02 265.339 519.024C262.719 519.636 260.649 520.838 258.145 521.32C257.536 521.438 256.566 518.252 254.979 517.865C253.44 519.404 252.792 525.611 252.409 528.994L252.26 530.25C251.885 532.255 251.542 534.261 251.229 536.274C250.357 544.518 249.283 552.839 248.662 561.091C245.181 607.394 272.296 648.28 293.201 687.356C296.755 693.998 302.061 703.717 307.188 709.048C311.217 713.198 316.22 716.279 321.742 718.007C338.934 723.242 373.069 717.365 390.959 714.713C398.293 713.623 411.071 710.771 417.52 713.753C432.661 720.755 458.133 757.396 463.634 772.502C470.87 765.735 478.199 759.067 485.62 752.504C477.481 718.324 483.599 681.388 489.005 646.927C492.118 626.859 495.603 606.852 499.457 586.91C507.052 547.313 515.67 506.184 515.305 465.865C515.213 455.982 515.618 440.256 513.711 430.864C505.547 427.684 489.578 425.502 480.631 424.696C478.677 417.188 476.342 407.039 473.62 399.923C473.681 407.639 473.856 416.367 473.083 424.01C449.464 421.833 430.683 424.279 408.011 424.526C405.096 420.546 400.902 414.336 397.615 411.114C393.409 411.967 390.523 413.533 386.649 414.812C376.977 417.907 368.221 420.964 359.416 426.225C352.488 430.364 346.254 435.872 338.803 438.928C336.675 439.8 334.899 440.694 332.872 441.767C335.782 430.994 341.357 425.923 349.104 418.392C336.38 420.947 326.301 423.897 313.944 426.963C293.394 415.504 282.087 396.647 270.652 377.471ZM585.281 706.031C577.755 711.067 569.967 715.507 562.293 720.234C557.038 723.468 543.805 730.166 542.071 736.247C540.595 741.439 547.861 753.029 552.222 756.076C567.713 764.267 583.996 750.594 592.643 738.592C590.571 729.793 588.381 721.007 586.813 712.108C586.488 710.251 586.38 707.837 585.729 706.152L585.281 706.031ZM695.152 643.636C695.1 663.768 689.719 684.995 683.743 704.073C682.271 708.77 676.791 721.83 676.178 724.796L676.529 724.87C687.131 706.113 695.999 669.412 695.96 647.738L695.687 643.562L695.152 643.636ZM577.155 614.844C566.106 644.726 556.203 675.364 545.919 705.502C546.549 705.055 548.715 703.579 549.189 703.153C555.417 698.513 561.92 694.25 568.651 690.378C572.534 688.16 579.374 684.631 582.771 682.282C581.88 677.955 581.377 671.973 580.895 667.441C579.587 655.252 578.696 643.019 578.219 630.77C578.11 628.447 577.872 615.975 577.155 614.844ZM709.48 183.645C714.479 193.069 722.722 203.188 722.501 214.195C722.375 220.685 721.932 227.116 721.919 233.623C718.288 228.527 714.71 222.084 710.632 217.364C708.994 215.466 696.043 199.428 695.222 199.301C697.988 204.136 701.129 207.91 704.334 212.479C708.907 219.089 713.415 225.744 717.858 232.442C710.575 227.091 704.425 219.986 698.279 213.44C693.337 208.176 688.234 203.01 683.2 197.827L682.758 198.771C689.19 206.874 702.688 222.782 704.799 231.958C700.36 231.061 695.395 229.961 690.892 229.911C690.344 232.397 689.823 235.102 689.063 237.513C681.342 229.335 675.088 219.103 666.866 211.095C674.41 221.968 681.893 232.669 688.551 244.114C685.485 247.791 681.181 252.755 677.181 255.437C667.339 253.942 659.578 249.935 648.174 248.578C644.526 242.435 636.069 228.035 631.544 222.665C638.002 237.802 638.154 239.473 638.949 256.012C629.29 253.761 625.064 252.705 615.088 252.957C616.443 256.361 618.653 262.418 620.334 265.442C622.071 263.4 622.332 262.963 624.999 262.771C631.496 262.306 639.031 267.163 643.635 271.415C649.737 277.049 654.202 284.238 658.767 291.154C656.669 284.62 654.301 277.818 652.764 271.165C656.225 275.544 660.66 281.023 663.131 285.991C698.953 358.031 714.757 437.844 740.073 513.729C741.519 518.069 742.927 522.324 744.247 526.639C747.543 537.651 750.484 548.768 753.051 559.972C761.29 595.236 771.503 649.109 773.314 684.656V684.657C773.128 688.286 774.522 697.801 774.695 702.628C775.164 697.016 775.116 689.086 774.326 683.604L774.327 683.603C773.789 670.163 772.046 653.681 770.487 640.212C766.435 603.419 759.596 566.991 750.023 531.235C745.237 513.616 738.384 494.962 733.172 476.958C718.644 426.767 704.468 376.879 685.237 328.233C675.348 303.72 664.421 279.639 652.486 256.053C656.043 258.125 663.14 260.021 667.335 261.728C674.128 264.49 680.851 267.332 687.604 270.176C692.165 266.129 694.553 263.768 698.171 258.891C711.214 284.189 724.196 310.258 734.345 336.862L735.317 339.439C740.125 352.068 744.529 364.846 748.524 377.755C749.284 380.266 751.52 387.407 751.82 389.761L752.546 389.398C748.928 377.105 745.767 365.095 741.271 353.001C739.663 348.668 738.337 344.043 736.499 339.768L736.125 338.918C730.622 323.241 724.672 307.724 718.279 292.387C713.515 280.987 707.739 268.615 703.374 257.245C720.694 272.895 735.856 310.641 744.425 332.884C746.184 336.997 747.434 341.509 749.476 345.595C748.568 341.289 746.883 336.642 745.276 332.545C741.216 320.579 736.785 308.741 731.995 297.049C726.914 284.647 719.318 270.538 720.604 257.048C723.474 261.137 727.799 268.136 730.075 272.474C728.351 265.45 725.468 257.832 723.535 250.172C737.411 270.197 748.793 291.839 757.432 314.616V314.617C761.284 324.063 766.53 337.383 769.288 347.141L769.875 346.945C766.296 335.938 762.444 325.023 758.313 314.21H758.314C752.681 299.914 747.209 286.168 740.781 272.191C736.429 262.734 730.978 253.341 727.252 243.766C731.352 248.419 734.636 253.42 738.714 258.13C728.795 238.932 743.339 234.242 731.104 214.307C734.635 218.057 737.663 222.774 740.716 226.94C755.113 246.575 763.326 266.554 772.082 289.059C784.355 320.16 793.828 352.29 800.39 385.068L801.016 388.242C802.501 395.991 804.763 406.187 805.836 413.828L806.258 413.739C804.942 405.804 803.782 396.347 802.084 388.64C795.456 339.348 771.348 269.137 744.907 226.852C736.503 213.416 719.965 196.036 709.48 183.645ZM715.383 578.459C718.332 608.523 719.803 638.236 715.156 668.118C714.788 670.488 714.372 673.367 714.132 675.861L714.04 676.904C713.61 678.298 712.186 685.264 712.333 686.602C713.453 683.198 714.062 680.82 714.856 677.312C722.796 641.939 721.132 613.905 716.116 578.397L715.383 578.459ZM295.156 625.14C296.675 625.426 296.643 625.353 297.881 626.416C298.495 628.96 296.227 631.456 294.906 634.785L294.24 635.25L293.37 634.954C291.063 631.976 293.266 627.675 295.156 625.14ZM296.339 613.15C295.047 613.849 292.1 614.991 291.382 616.067C291.503 617.283 291.588 617.24 292.259 618.295C294.135 617.531 297.581 615.907 296.763 613.445L296.339 613.15ZM294.849 611.527C292.288 611.059 290.724 610.976 288.124 611.188C290.227 613.836 292.098 612.773 295.207 612.078L294.849 611.527ZM292.006 602.421C290.095 603.228 288.12 603.806 286.832 605.329C286.502 606.843 286.393 606.153 287.126 607.473C291.364 610.459 295.993 609.947 300.814 609.656C303.196 609.457 305.427 609.253 307.825 609.223C304.158 605.867 296.864 603.741 292.006 602.421ZM274.586 594.39C274.764 599.711 276.798 605.728 282.75 606.848C281.179 605.237 280.479 604.517 279.13 602.741C277.73 600.901 275.762 595.293 274.586 594.39ZM281.289 551.207C290.064 552.071 296.815 553.916 296.899 563.942C295.595 563.031 293.93 560.761 292.554 559.441C288.845 555.878 285.648 553.842 281.289 551.207ZM260.303 477.714C252.939 480.151 254.313 485.699 254.535 492.604C254.809 501.1 256.355 519.25 269.402 513.603L273.771 510.964C269.9 508.273 262.609 498.63 264.737 493.804L266.314 492.729L266.456 491.971C264.944 490.773 263.732 489.951 262.118 488.888C261.959 486.23 262.434 479.16 261.399 477.867L260.303 477.714ZM381.951 430.139C393.211 428.812 404.136 432.387 414.363 436.731C416.706 437.727 421.057 439.506 422.978 441.114C418.807 441.333 398.386 429.797 389.016 432.096C380.569 434.168 371.311 436.064 363.555 440.155C358.572 443.099 353.271 446.2 349.497 450.674C353.144 449.019 358.256 445.235 362.131 442.454L363.709 441.333C382.945 433.049 391.083 433.251 411.71 440.734C415.548 442.127 441.769 455.313 443.592 457.062C443.65 457.145 443.704 457.225 443.755 457.302C443.704 457.225 443.649 457.145 443.591 457.062C441.315 456.803 438.879 456.47 436.605 456.359C439.195 458.108 440.547 459.077 443.312 460.187L443.885 460.411C448.961 461.161 452.583 459.564 457.208 457.839C453.389 460.467 452.226 460.905 448.004 462.475C454.529 464.049 456.296 463.979 463.124 463.796C454.506 467.713 452.857 466.982 443.808 472.732C447.121 472.716 450.435 472.757 453.747 472.854C451.3 473.693 446.857 475.33 444.516 475.898C440.666 476.832 440.183 476.458 436.236 478.074C438.708 478.089 445.597 477.593 447.136 479.651C445.609 480.906 438.733 478.998 435.615 480.467C437.591 481.537 441.084 481.402 443.549 482.797C441.069 484.402 436.143 482.231 432.259 484.847L432.291 485.554C433.991 486.654 437.974 487.362 440.309 487.992C437.294 488.22 429.233 487.466 427.402 489.754C428.439 491.831 431.035 491.453 432.275 493.663C431.111 494.01 423.844 493.332 419.975 493.797L425.256 499.276C421.703 498.235 415.485 495.317 412.976 498.521C412.598 500.25 413.382 501.444 414.11 503.15C411.245 501.037 407.725 497.799 404.182 499.659C403.544 500.77 403.2 501.73 402.087 502.256C399.229 501.787 399.979 498.542 396.126 499.454C394.365 500.749 395.44 501.852 393.854 503.337C392.638 502.911 392.39 501.211 391.417 499.436C388.595 498.095 388.35 501.887 385.794 502.408C384.172 500.984 385.699 501.925 384.775 499.26L383.653 498.997C382.37 499.333 381.799 500.247 380.884 501.271L380.443 501.771L379.872 501.735C379.363 499.924 379.224 498.836 378.956 496.958C377.794 498.16 376.264 500.087 374.716 500.175C374.477 499.164 374.275 498.444 373.961 497.453L372.92 496.974C370.079 497.22 368.366 498.844 366.08 500.547C367.003 498.602 368.133 496.563 369.143 494.645C361.919 490.717 360.848 490.465 352.999 492.751C363.004 485.603 364.448 491.418 374.65 493.886C389.917 497.578 406.742 496.27 420.67 488.68C428.788 484.256 432.65 479.701 435.303 470.793C430.969 466.948 421.416 461.812 415.908 459.649C419.593 467.102 419.273 467.228 411.602 469.966C412.995 471.28 415.274 472.975 416.828 474.205C415.294 479.506 410.739 484.924 406.074 487.825C401.824 490.457 396.683 491.241 391.842 489.995C384.899 488.167 380.021 481.546 376.647 475.62C378.166 474.584 379.342 473.955 380.427 472.466L380.151 471.903C379.413 471.679 378.638 471.429 377.905 471.181C369.935 468.48 376.749 454.844 378.895 450.089C370.897 454.786 362.402 460.868 359.769 470.369C359.577 471.06 359.823 470.665 359.18 471.263L358.471 470.841C357.683 468.437 358.94 465.166 359.711 462.773C356.817 465.125 355.169 466.171 351.954 468.122C354.425 462.406 357.477 459.585 361.64 455.101C357.311 457.821 355.633 458.779 350.789 460.373C352.598 459.043 358.235 455.56 359.208 453.912C357.954 453.49 357.205 454.332 355.216 454.734C355.41 453.316 358.567 450.038 359.724 449.059L359.723 449.058L361.305 447.614C363.863 445.263 365.974 443.755 368.786 441.682C365.441 442.832 362.015 445.057 358.682 446.822L358.017 447.169C355.544 448.305 351.735 451.234 349.103 450.702L348.88 450.021C349.872 446.975 351.682 445.466 353.418 443.097C361.309 432.329 369.361 431.621 381.951 430.139ZM661.033 472.13C650.744 459.37 639.474 453.881 622.783 455.78C611.682 457.333 604.69 460.703 596.851 468.883C600.881 469.705 603.083 470.543 606.753 472.515C617.176 467.454 625.663 465.837 637.198 468.352C641.902 469.688 643.508 470.345 647.582 473.058C651.986 472.426 656.673 471.447 661.033 472.13ZM260.328 460.928C268.715 460.347 276.287 462.949 283.255 467.46L276.054 465.059C264.888 462.128 263.345 461.386 252.149 463.313C255.029 462.355 257.386 461.689 260.328 460.928ZM378.262 432.745C371.604 434.327 358.778 435.743 355.619 442.604L355.843 442.765L357.781 441.049C363.596 436.662 373.712 433.893 380.818 432.851C380.077 432.812 378.969 432.713 378.262 432.745ZM350.649 305.764C355.095 340.112 364.745 379.176 382.429 409.229C386.472 409.107 390.885 408.482 394.879 407.744L395.31 407.27C393.585 403.445 387.354 394.246 384.861 389.899C377.882 377.835 371.754 365.299 366.52 352.383C363.674 345.282 361.063 338.089 358.692 330.816C357.46 326.997 352.035 307.748 350.649 305.764ZM645.298 382.28C639.048 376.59 630.101 375.373 621.997 375.94C614.01 376.85 607.105 378.652 600.538 383.553C601.719 383.457 607.366 380.761 608.895 380.108C613.646 378.044 618.762 376.949 623.943 376.891C634.536 377.003 636.156 377.624 645.25 382.8L645.298 382.28ZM475.785 119.367C462.914 116.316 449.101 114.557 435.84 115.063C401.202 116.987 370.284 128.313 338.688 141.922C347.586 139.716 356.427 136.742 365.435 135.294C402.971 129.259 437.365 133.41 470.057 153.411C527.87 188.781 557.464 239.698 573.516 304.121C574.992 309.913 576.174 315.604 577.416 321.465C578.563 326.876 578.909 332.802 580.781 338.011C582.809 343.65 591.487 340.97 593.576 347.002C595.656 353.028 589.863 357.069 586.476 361.186C580.838 367.167 578.037 372.033 575.418 379.735C583.34 371.189 596.03 360.267 597.681 349.094C600.091 324.766 586.675 345.264 585.133 329.731C583.682 315.126 602.94 318.873 611.965 315.818C623.187 312.439 628.629 315.664 627.908 327.781C627.795 333.105 617.993 332.478 617.858 337.293C617.385 354.461 630.145 354.275 642.167 360.787C648.117 364.009 655.009 367.048 660.485 371.114C653.684 361.574 646.914 357.835 636.451 352.549C631.535 350.065 621.259 347.818 622.758 340.726C623.783 335.851 632.174 336.323 633.225 332.259C634.384 327.786 632.051 321.056 631.339 316.511C624.416 283.133 610.38 245.788 592.838 216.625C566.515 172.855 527.114 131.536 475.785 119.367ZM236.327 235.479C228.465 243.643 218.215 256.483 212.041 266.082C208.246 265.365 204.752 265.018 200.87 265.147C194.407 272.266 184.229 295.058 181.571 304.566L197.242 305.534C198.248 304.13 199.487 302.279 200.63 301.043C195.088 312.253 188.103 337.731 185.527 351.116L185.292 352.373C184.903 354.548 184.322 357.29 184.166 359.448L184.969 359.794C185.126 358.501 185.625 356.481 186.044 354.799L186.421 353.268C190.951 335.014 199.729 309.304 209.73 293.284C209.239 299.034 207.658 304.116 207.126 309.974C208.557 308.385 210 306.285 211.282 304.536C211.884 309.637 211.256 313.884 212.424 319.024C214.981 314.192 217.192 311.008 221.336 307.533C220.941 313.292 219.394 325.877 217.591 331.169L218.227 332.44C226.219 306.939 235.639 287.564 246.685 263.605C243.85 266.875 240.16 273.926 237.259 278.07C230.072 277.444 227.704 278.054 221.448 281.242C228.966 267.669 238.209 250.7 247.458 238.33L247.246 237.564C238.615 247.854 230.502 259.203 222.814 270.253C219.825 268.622 218.829 268.09 215.279 267.909L215.621 267.286C217.645 263.622 236.272 236.312 236.327 235.479ZM231.524 222.06C219.544 232.483 208.276 242.94 197.106 254.215C192.903 258.458 182.978 266.536 179.968 270.976C174.797 278.6 169.515 291.759 167.114 300.532C168.908 298.268 170.8 295.78 172.647 293.588C170.72 299.008 168.833 304.5 166.386 309.71C169.417 305.539 171.809 302.111 175.731 298.691C169.177 314.167 160.977 336.96 158.476 353.4C167.04 329.853 178.312 304.643 189.282 282.024C199.051 261.882 215.82 238.417 232.118 223.031L231.524 222.06ZM471.084 317.987C471.736 320.547 472.451 323.09 473.228 325.615C473.071 322.187 472.666 319.782 472.106 316.371L471.084 317.987ZM304.788 216.588C297.632 226.715 289.88 236.378 282.763 246.487C276.704 255.093 271.64 264.633 265.816 273.468C259.854 282.514 252.297 284.99 243.871 290.72C247.54 278.54 261.498 251.699 268.62 240.833L268.212 239.963C255.68 258.679 243.158 276.645 234.236 297.516C232.98 300.455 231.455 304.037 229.923 306.801C234.299 306.913 238.678 306.947 243.056 306.901C244.313 303.389 245.178 300.55 247.145 297.333C252.339 294.231 256.559 294.248 261.763 290.331C260.442 294.654 260.162 297.42 259.414 301.802C260.912 299.905 261.457 299.023 262.682 296.947C262.389 305.343 263.01 313.652 262.498 322.004C264.169 318.391 264.895 313.551 266.114 309.671C275.8 278.855 288.645 244.642 305.031 216.888L304.788 216.588ZM429.874 210.761C438.617 224.329 444.457 246.965 441.756 263.05C441.076 260.422 440.489 251.605 438.506 250.801C437.176 251.776 436.678 252.56 435.143 252.176C432.841 249.737 427.577 235.384 425.718 231.021L425.196 231.914C428.283 239.73 432.289 250.961 432.417 259.255C429.174 262.201 424.854 266.385 421.611 269.028C419.194 262.204 416.1 252.596 413.247 246.167C414.487 252.215 415.865 258.478 416.771 264.562C411.341 267.269 401.419 271.071 395.319 273.526C396.465 278.628 397.761 285.082 399.213 289.995C409.286 292.281 417.866 293.579 426.222 300.083C428.187 304.565 429.846 309.828 431.118 314.561C430.542 308.89 429.437 302.372 428.367 296.727C432.064 295.245 435.873 293.823 439.369 291.932C441.261 296.119 447.811 315.639 448.196 319.673C448.518 314.163 444.841 290.164 443.475 284.665C450.415 294.446 454.067 302.16 459.58 312.398C459.69 303.118 459.713 293.837 459.647 284.557C462.899 289.386 469.343 311.416 471.084 317.986L472.106 316.371C471.369 311.37 470.604 306.039 470.119 301.021C469.6 295.649 469.569 290.946 468.57 285.602C472.825 289.8 477.252 294.034 481.231 298.476C471.85 263.922 454.187 236.535 429.874 210.761ZM344.375 230.228C342.772 235.872 333.646 270.198 329.995 272.411C325.647 275.047 317.717 275.876 312.667 277.325C315.411 265.965 316.965 254.066 320.444 242.731C321.102 240.588 322.13 235.957 323.024 234.187L322.519 232.827C319.073 242.354 311.344 265.37 309.971 275.428C300.257 272.11 295.011 267.94 285.976 263.906C282.288 272.889 279.882 279.682 277.02 288.957C279.768 292.18 282.612 295.437 285.237 298.754C293.359 296.986 299.328 295.606 307.619 294.905C307.617 299.462 307.659 304.018 307.745 308.573C309.16 304.314 309.871 299.418 310.661 294.964C317.283 293.265 325.783 290.169 331.622 288.898C332.955 292.485 336.938 301.625 338.768 305.118C338.003 298.732 337.472 293.285 337.11 286.867C340.259 293.564 344.191 302.399 346.486 309.328C343.46 283.912 341.295 255.751 344.375 230.228ZM382.086 242.715C383.493 248.958 384.93 255.882 385.049 262.278C369.58 258.893 362.371 258.661 347.093 256.815C346.864 261.734 346.658 267.926 348.295 272.622C351.274 281.165 354.03 291.255 357.453 299.529C357.088 296.702 355.704 287.564 357.23 285.236C357.485 285.47 357.964 285.86 358.122 286.122C358.83 287.298 359.296 288.498 360.492 288.965C370.463 289.134 378.742 288.801 388.976 289.528C392.296 293.619 395.792 300.554 397.858 305.524C396.258 288.698 390.668 269.388 385.794 253.243C385.133 251.055 383.242 244.405 382.086 242.715ZM497.739 196.681C501.903 201.252 505.888 205.983 509.685 210.863C506.488 213.693 498.938 218.669 495.093 221.427C489.727 215.087 484.724 208.417 479.055 202.418L478.671 203.176C481.748 207.617 484.334 217.555 486.02 223.142C480.865 223.4 478.489 223.965 473.577 225.573C471.556 222.81 464.217 211.678 462.062 209.825C462.199 210.777 472.779 228.714 474.351 232.017C471.26 236.834 466.708 242.517 462.475 246.28C465.385 251.443 468.693 256.815 471.727 261.939C477.569 261.943 483.974 261.82 489.743 262.278C492.677 265.328 496.829 274.096 498.848 278.22C498.171 275.112 493.796 260.69 498.047 259.908L498.415 261.368L498.704 261.221C499.237 259.372 499.038 258.894 500.928 258.507C503.066 259.541 504 262.781 504.905 265.017C505.128 262.472 505.221 259.715 505.351 257.149C514.093 264.776 517.298 277.652 521.802 287.663C522.127 283.192 513.489 264.062 511.8 258.407C510.779 254.984 510.367 253.549 509.725 249.644C516.009 254.581 518.55 259.524 522.784 266.238C520.131 258.483 512.408 246.572 512.859 238.731C512.951 237.15 515.522 230.15 516.087 226.698L516.195 226.015C529.893 241.625 538.172 256.94 546.688 275.716C545.681 271.717 544.756 268.014 543.961 263.955C550.749 265.552 554.071 267.835 560.091 271.266C557.368 264.34 555.009 257.249 551.396 250.714C548.685 245.819 542.871 249.154 539.505 251.553C528.76 228.379 517.95 212.951 497.739 196.681ZM241.31 214.06C237.987 216.65 234.725 219.318 231.525 222.06L232.119 223.031C234.984 220.258 238.568 217.343 241.635 214.726L241.31 214.06ZM675.309 190.405C677.715 193.294 680.221 195.999 682.757 198.771L683.2 197.827C680.777 195.446 677.919 192.486 675.309 190.405ZM942.585 76.584L81.415 76.5811V76.4004H942.585V76.584Z" fill="black" style="fill:black;fill-opacity:1;"/>
</svg>
