<svg width="1024" height="1024" viewBox="0 0 1024 1024" fill="none" xmlns="http://www.w3.org/2000/svg">
<path d="M373.288 495.864L373.444 497.055C369.437 499.865 363.287 504.591 359.073 506.504C362.889 501.979 368.25 498.842 373.288 495.864Z" fill="#ECECED" style="fill:#ECECED;fill:color(display-p3 0.9255 0.9255 0.9294);fill-opacity:1;"/>
<path d="M447.155 512.255C449.454 512.367 451.917 512.704 454.218 512.965C455.159 514.322 455.089 514.688 454.515 516.353C451.316 515.131 449.947 514.142 447.155 512.255Z" fill="#ECECED" style="fill:#ECECED;fill:color(display-p3 0.9255 0.9255 0.9294);fill-opacity:1;"/>
<path d="M367.688 502.959C371.27 501.128 374.97 498.649 378.579 497.408C375.735 499.505 373.6 501.03 371.014 503.409L369.414 504.87L367.688 502.959Z" fill="#ECECED" style="fill:#ECECED;fill:color(display-p3 0.9255 0.9255 0.9294);fill-opacity:1;"/>
<path fill-rule="evenodd" clip-rule="evenodd" d="M279.351 432.455C290.913 451.853 302.346 470.928 323.126 482.519C335.62 479.417 345.811 476.434 358.678 473.849C350.844 481.467 345.206 486.597 342.264 497.494C344.314 496.409 346.109 495.505 348.261 494.623C355.796 491.532 362.098 485.959 369.104 481.772C378.007 476.45 386.861 473.359 396.642 470.228C400.558 468.934 403.476 467.35 407.729 466.487C411.052 469.746 415.293 476.028 418.241 480.055C441.166 479.804 460.156 477.331 484.038 479.532C484.821 471.801 484.644 462.972 484.582 455.167C487.335 462.365 489.695 472.632 491.671 480.226C500.719 481.042 516.866 483.249 525.121 486.466C527.048 495.967 526.64 511.873 526.732 521.871C527.101 562.655 518.387 604.259 510.707 644.314C506.809 664.486 503.286 684.724 500.139 705.023C494.673 739.883 488.487 777.245 496.716 811.82C489.212 818.459 481.801 825.203 474.485 832.049C468.922 816.768 443.166 779.705 427.856 772.622C421.336 769.605 408.415 772.49 400.999 773.592C382.91 776.275 348.393 782.22 331.01 776.925C325.426 775.177 320.367 772.059 316.293 767.862C311.11 762.47 305.745 752.638 302.152 745.92C281.013 706.393 253.595 665.035 257.115 618.196C257.743 609.849 258.829 601.431 259.711 593.093L260.558 592.351C260.644 602.358 264.87 609.151 271.875 616.045C277.62 621.696 285.994 626.706 286.122 635.809C286.259 645.517 276.089 647.502 279.829 659.252C282.261 666.892 285.712 671.204 290.65 677.496C291.252 678.264 291.489 678.813 291.114 679.582C289.137 679.555 286.993 677.211 285.522 675.832C289.018 686.418 289.054 696.254 298.661 703.029C301.121 704.768 303.813 708.026 306.891 707.798L307.56 707.236C307.025 704.948 303.922 703.293 301.866 701.879C302.622 701.26 307.368 701.387 309.572 700.738C314.433 699.297 316.984 698.032 321.025 695.055C317.199 696.228 313.033 696.706 309.744 697.646C298.068 700.983 284.975 690.945 298.075 681.658C302.276 680.943 308.415 679.612 312.269 679.072C320.144 677.97 334.122 680.71 341.485 683.626C335.522 684.93 332.889 685.632 327.955 689.628C331.566 688.601 349.399 683.235 351.519 681.224C351.762 679.854 351.418 676.201 349.703 676.192C346.528 676.166 343.631 677.461 340.357 676.148C327.848 671.977 306.729 651.475 293.493 662.163C290.125 657.438 288.334 654.509 283.798 650.83C286.959 643.532 291.71 638.149 288.303 630.078C285.514 623.47 279.254 619.54 274.411 614.455C268.955 608.729 261.398 597.774 264.214 589.506C265.829 584.759 277.695 578.625 281.697 574.16C292.522 562.076 303.215 542.105 295.994 525.803C291.474 515.598 282.447 508.23 272.288 504.207C270.617 503.546 269.307 503.08 267.555 503.189L267.288 503.757C268.59 505.757 272.064 508.023 274.211 508.988C287.772 515.083 295.181 522.4 296.825 538.061C290.491 530.641 282.434 522.89 272.202 522.123C265.434 521.616 261.485 524.019 255.482 525.738C251.012 519.984 248.722 513.997 246.292 507.186C260.389 498.873 264.069 499.059 279.355 502.321C275.192 497.145 272.973 496.129 266.698 493.848C278.107 488.611 290.519 485.62 302.829 483.459C292.011 467.47 284.852 450.887 279.351 432.455ZM304.128 682.985C302.216 685.549 299.989 689.901 302.322 692.913L303.202 693.211L303.875 692.742C305.21 689.374 307.504 686.849 306.883 684.276C305.632 683.2 305.663 683.275 304.128 682.985ZM290.106 608.198C294.514 610.863 297.747 612.923 301.496 616.527C302.888 617.862 304.572 620.159 305.891 621.081C305.805 610.938 298.979 609.072 290.106 608.198ZM424.664 492.401C414.323 488.006 403.276 484.389 391.891 485.731C379.16 487.231 371.018 487.947 363.039 498.839C361.283 501.236 359.453 502.763 358.45 505.845L358.676 506.533C361.338 507.071 365.19 504.107 367.69 502.959L369.415 504.87C368.246 505.86 365.054 509.177 364.857 510.612C366.869 510.205 367.626 509.352 368.893 509.779C367.91 511.446 362.21 514.97 360.381 516.316C365.279 514.703 366.976 513.734 371.353 510.982C367.144 515.518 364.058 518.371 361.559 524.153C364.81 522.18 366.476 521.122 369.403 518.743C368.623 521.163 367.352 524.472 368.149 526.904L368.865 527.331C369.515 526.726 369.266 527.126 369.46 526.427C372.123 516.816 380.714 510.664 388.8 505.913C386.631 510.723 379.741 524.515 387.799 527.247C388.54 527.499 389.324 527.751 390.071 527.979L390.349 528.547C389.252 530.053 388.063 530.691 386.528 531.738C389.939 537.732 394.871 544.43 401.891 546.279C406.787 547.539 411.985 546.746 416.283 544.084C420.999 541.15 425.605 535.669 427.157 530.308C425.585 529.063 423.281 527.347 421.872 526.018C429.628 523.249 429.952 523.122 426.226 515.584C431.795 517.771 441.456 522.966 445.837 526.856C443.155 535.866 439.249 540.474 431.041 544.949C416.958 552.627 399.946 553.949 384.509 550.215C374.192 547.719 372.733 541.836 362.616 549.067C370.552 546.755 371.635 547.01 378.939 550.982C377.918 552.923 376.776 554.986 375.842 556.954C378.154 555.231 379.886 553.588 382.759 553.339L383.811 553.823C384.129 554.825 384.333 555.554 384.574 556.577C386.14 556.488 387.687 554.539 388.862 553.323C389.133 555.223 389.274 556.323 389.789 558.155L390.366 558.191L390.812 557.686C391.737 556.649 392.314 555.725 393.612 555.385L394.746 555.651C395.68 558.347 394.136 557.394 395.776 558.835C398.36 558.308 398.608 554.472 401.462 555.828C402.446 557.624 402.697 559.345 403.927 559.775C405.531 558.273 404.443 557.158 406.224 555.848C410.119 554.925 409.361 558.207 412.251 558.682C413.377 558.149 413.724 557.179 414.369 556.055C417.952 554.174 421.512 557.448 424.409 559.586C423.672 557.86 422.879 556.653 423.261 554.905C425.799 551.663 432.086 554.615 435.679 555.668L430.339 550.125C434.252 549.654 441.599 550.34 442.776 549.99C441.522 547.754 438.897 548.137 437.849 546.036C439.7 543.721 447.851 544.484 450.899 544.253C448.539 543.616 444.512 542.9 442.792 541.787L442.759 541.072C446.686 538.426 451.667 540.621 454.175 538.998C451.682 537.587 448.151 537.724 446.153 536.641C449.305 535.156 456.258 537.086 457.802 535.816C456.247 533.734 449.28 534.236 446.781 534.221C450.772 532.586 451.26 532.964 455.152 532.02C457.52 531.445 462.013 529.789 464.487 528.94C461.138 528.842 457.787 528.801 454.437 528.818C463.587 523.001 465.255 523.741 473.969 519.778C467.065 519.963 465.278 520.033 458.68 518.441C462.949 516.853 464.125 516.411 467.987 513.752C463.311 515.498 459.648 517.112 454.515 516.353C455.089 514.689 455.159 514.323 454.218 512.965C452.375 511.197 425.861 497.858 421.981 496.45C401.124 488.88 392.895 488.676 373.445 497.056L373.289 495.864C381.132 491.726 390.493 489.808 399.034 487.712C408.509 485.386 429.158 497.056 433.375 496.834C431.432 495.207 427.033 493.408 424.664 492.401ZM292.093 523.484C285.048 518.921 277.392 516.289 268.911 516.876C265.936 517.646 263.553 518.32 260.641 519.29C271.962 517.34 273.522 518.091 284.813 521.055L292.093 523.484Z" fill="#FEFEFE" style="fill:#FEFEFE;fill:color(display-p3 0.9961 0.9961 0.9961);fill-opacity:1;"/>
<path d="M446.379 167.018C459.788 166.506 473.755 168.285 486.77 171.371C538.672 183.68 578.512 225.477 605.129 269.753C622.866 299.253 637.059 337.029 644.059 370.792C644.78 375.39 647.138 382.196 645.965 386.721C644.903 390.833 636.418 390.355 635.382 395.286C633.867 402.46 644.257 404.733 649.228 407.246C659.807 412.594 666.654 416.375 673.531 426.026C667.993 421.912 661.024 418.838 655.007 415.579C642.852 408.991 629.949 409.181 630.428 391.814C630.564 386.943 640.476 387.578 640.59 382.192C641.319 369.935 635.817 366.672 624.469 370.091C615.343 373.181 595.871 369.39 597.338 384.164C598.897 399.877 612.462 379.142 610.025 403.751C608.356 415.053 595.524 426.101 587.514 434.746C590.162 426.954 592.995 422.032 598.695 415.982C602.12 411.818 607.979 407.73 605.875 401.635C603.763 395.533 594.989 398.244 592.938 392.54C591.045 387.271 590.694 381.276 589.534 375.802C588.278 369.874 587.084 364.117 585.591 358.259C569.36 293.091 539.436 241.587 480.978 205.808C447.922 185.576 413.143 181.377 375.189 187.481C366.081 188.946 357.141 191.955 348.145 194.186C380.093 180.42 411.355 168.964 446.379 167.018Z" fill="#FEFEFE" style="fill:#FEFEFE;fill:color(display-p3 0.9961 0.9961 0.9961);fill-opacity:1;"/>
<path fill-rule="evenodd" clip-rule="evenodd" d="M503.219 831.974C503.794 832.545 504.802 835.241 505.108 836.141C510.914 853.542 521.15 863.655 535.41 874.334C548.338 884.025 556.19 889.698 571.253 896.007C566.822 899.555 561.351 902.624 556.898 906.137C535.744 922.831 512.654 931.974 488.367 943.364C481.782 946.543 474.717 950.174 467.764 952.321C463.668 936.764 459.291 929.866 450.529 916.526C442.879 904.877 434.263 892.244 427.902 879.958C455.194 880.362 460.681 873.552 478.485 854.434C485.499 846.903 495.219 838.486 503.219 831.974ZM493.967 865.775C490.242 867.848 476.54 874.588 479.368 880.195C481.333 884.09 486.274 880.191 488.843 878.9C492.052 885.706 499.683 896.099 503.984 902.624C495.714 897.083 485.213 892.771 476.318 888.117C473 886.382 469.619 885.091 466.436 883.027C463.058 885.657 453.995 890.106 456.087 894.764C458.94 897.469 460.926 896.657 463.663 894.378C469.669 903.937 474.213 912.284 479.591 921.914C476.35 925.281 474.993 925.923 478.222 930.103C480.875 931.227 481.56 930.204 485.47 928.369C487.829 927.262 504.573 920.535 495.422 916.091C493.987 915.393 489.395 917.738 487.501 918.779C486.233 915.038 476.768 899.95 474.111 896.301C486.465 902.615 499.109 909.228 511.821 914.783C514.463 912.873 515.755 912.074 518.631 910.537C517.295 907.942 515.446 905.184 513.807 902.76C507.608 893.592 501.525 884.621 495.79 875.15C498.07 871.743 499.603 866.935 493.967 865.775Z" fill="#FEFEFE" style="fill:#FEFEFE;fill:color(display-p3 0.9961 0.9961 0.9961);fill-opacity:1;"/>
<path d="M723.072 236.391C733.673 248.926 750.396 266.507 758.894 280.097C785.63 322.871 810.007 393.893 816.708 443.754L815.628 443.352C808.975 409.082 799.182 375.498 786.372 343.023C777.518 320.259 769.214 300.048 754.656 280.187C751.569 275.972 748.508 271.202 744.938 267.408C757.309 287.574 742.601 292.317 752.632 311.737C748.508 306.973 745.188 301.914 741.042 297.207C744.81 306.893 750.322 316.394 754.722 325.961C761.221 340.099 766.755 354.004 772.451 368.464L771.559 368.876C762.824 345.835 751.314 323.944 737.283 303.687C739.238 311.435 742.153 319.142 743.897 326.246C741.596 321.858 737.222 314.778 734.319 310.642C733.019 324.288 740.7 338.561 745.838 351.106C750.682 362.933 755.161 374.907 759.267 387.012L758.407 387.354C749.742 364.854 734.411 326.673 716.898 310.842C721.311 322.344 727.152 334.858 731.97 346.39C738.434 361.904 744.45 377.6 750.014 393.458L749.197 393.985C738.798 366.169 725.251 338.922 711.637 312.506C707.979 317.44 705.563 319.828 700.952 323.922C694.123 321.046 687.325 318.17 680.457 315.376C676.215 313.65 669.039 311.732 665.442 309.636C677.51 333.494 688.559 357.854 698.559 382.65C718.005 431.857 732.338 482.322 747.028 533.092C752.298 551.304 759.228 570.173 764.067 587.996C773.746 624.164 780.663 661.013 784.76 698.231C786.337 711.856 788.098 728.528 788.642 742.123L788.041 743.15L787.619 743.19C785.788 707.232 775.459 652.736 767.128 617.064C764.533 605.731 761.56 594.486 758.226 583.346C756.891 578.981 755.469 574.678 754.006 570.287C728.408 493.526 712.427 412.791 676.206 339.92C673.707 334.894 669.223 329.352 665.723 324.922C667.278 331.652 669.671 338.533 671.793 345.143C667.177 338.147 662.663 330.875 656.492 325.175C651.837 320.874 644.218 315.961 637.648 316.432C634.952 316.625 634.689 317.068 632.932 319.133C631.232 316.074 628.997 309.947 627.627 306.504C637.714 306.249 641.987 307.318 651.754 309.594C650.95 292.864 650.797 291.174 644.266 275.863C648.842 281.295 657.393 295.861 661.082 302.074C672.614 303.447 680.461 307.5 690.413 309.012C694.457 306.299 698.809 301.279 701.91 297.559C695.177 285.981 687.611 275.157 679.983 264.158C688.296 272.259 694.62 282.609 702.428 290.881C703.196 288.443 703.723 285.707 704.277 283.192C708.831 283.242 713.85 284.355 718.338 285.262C716.204 275.98 702.555 259.889 696.051 251.693L696.499 250.738C701.589 255.98 706.749 261.206 711.747 266.531C717.961 273.153 724.179 280.34 731.544 285.753C727.051 278.977 722.493 272.245 717.868 265.559C714.627 260.937 711.452 257.119 708.655 252.228C709.485 252.357 722.58 268.58 724.236 270.5C728.36 275.274 731.978 281.792 735.65 286.947C735.663 280.365 736.111 273.86 736.238 267.295C736.462 256.16 728.127 245.925 723.072 236.391Z" fill="#FEFEFE" style="fill:#FEFEFE;fill:color(display-p3 0.9961 0.9961 0.9961);fill-opacity:1;"/>
<path d="M597.053 906.362L597.51 906.678C595.481 909.427 584.089 919.082 580.624 922.485C574.388 928.396 568.425 934.824 562.523 941.05C556.107 947.821 550.608 955.009 545.721 962.939C544.232 965.359 542.225 968.371 540.293 970.487C533.328 978.114 525.546 985.056 518.265 992.394C512.396 998.251 507.202 1004.64 501.558 1010.69C480.044 1011.35 454.972 1010.77 433.174 1010.7C436.002 1007.39 438.658 1003.83 441.595 1000.41C447.591 994.036 477.559 957.543 483.758 959.185C484.838 963.361 479.06 970.356 476.726 973.794C486.389 967.572 495.944 962.768 505.736 956.932C514.16 951.909 522.384 945.169 530.992 940.387C540.337 935.202 549.752 930.393 559.163 925.243C571.635 918.415 583.281 909.453 597.053 906.362Z" fill="#FEFEFE" style="fill:#FEFEFE;fill:color(display-p3 0.9961 0.9961 0.9961);fill-opacity:1;"/>
<path d="M440.347 263.821C464.931 289.893 482.791 317.595 492.277 352.548C488.254 348.055 483.778 343.772 479.476 339.525C480.485 344.931 480.516 349.688 481.042 355.123C481.532 360.199 482.305 365.591 483.051 370.65L482.017 372.285C480.257 365.639 473.74 343.354 470.453 338.469C470.519 347.857 470.496 357.244 470.385 366.632C464.81 356.275 461.118 348.473 454.1 338.578C455.482 344.141 459.199 368.417 458.874 373.991C458.485 369.911 451.862 350.164 449.949 345.929C446.414 347.843 442.562 349.28 438.824 350.779C439.905 356.489 441.022 363.083 441.605 368.819C440.319 364.032 438.641 358.708 436.654 354.174C428.205 347.594 419.53 346.283 409.344 343.97C407.876 339 406.566 332.472 405.407 327.311C411.575 324.827 421.608 320.98 427.099 318.243C426.183 312.088 424.789 305.753 423.535 299.635C426.419 306.138 429.548 315.857 431.992 322.761C435.271 320.086 439.639 315.854 442.918 312.875C442.789 304.485 438.739 293.124 435.617 285.218L436.144 284.314C438.024 288.727 443.347 303.247 445.674 305.714C447.227 306.102 447.731 305.31 449.076 304.323C451.081 305.137 451.674 314.056 452.361 316.714C455.092 300.444 449.188 277.546 440.347 263.821Z" fill="#FEFEFE" style="fill:#FEFEFE;fill:color(display-p3 0.9961 0.9961 0.9961);fill-opacity:1;"/>
<path d="M435.574 343.527C436.989 345.503 437.222 348.21 437.046 350.581L436.783 350.494C436.16 349.163 435.797 345.22 435.574 343.527Z" fill="#BCBDBE" style="fill:#BCBDBE;fill:color(display-p3 0.7373 0.7412 0.7451);fill-opacity:1;"/>
<path d="M525.915 1010.72C527.768 994.98 551.368 956.954 562.531 943.737C573.15 931.166 574.77 930.446 588.279 921.791C613.025 905.935 635.009 899.907 663.778 896.807C664.621 897.206 664.788 897.215 665.512 897.777C642.887 900.451 620.802 914.234 603.517 928.716C592.011 938.354 578.964 956.576 572.539 970.333C572.851 966.171 574.186 959.448 574.928 955.136C562.698 972.906 558.175 989.666 554.613 1010.7C545.207 1010.86 535.352 1010.72 525.915 1010.72Z" fill="#FEFEFE" style="fill:#FEFEFE;fill:color(display-p3 0.9961 0.9961 0.9961);fill-opacity:1;"/>
<path d="M508.97 249.578C529.406 266.036 540.336 281.643 551.201 305.084C554.605 302.657 560.485 299.283 563.225 304.235C566.879 310.845 569.263 318.018 572.017 325.024C565.93 321.554 562.571 319.244 555.707 317.629C556.51 321.735 557.446 325.48 558.465 329.525C549.853 310.533 541.483 295.041 527.632 279.25L527.522 279.941C526.951 283.433 524.351 290.515 524.259 292.114C523.802 300.045 531.611 312.094 534.294 319.939C530.012 313.147 527.443 308.146 521.088 303.152C521.738 307.103 522.156 308.554 523.188 312.017C524.896 317.737 533.631 337.088 533.301 341.611C528.747 331.484 525.506 318.459 516.666 310.745C516.535 313.34 516.441 316.129 516.216 318.703C515.301 316.441 514.356 313.164 512.194 312.118C510.283 312.51 510.484 312.993 509.945 314.863L509.653 315.012L509.281 313.535C504.983 314.326 509.406 328.914 510.091 332.058C508.05 327.887 503.851 319.017 500.885 315.932C495.052 315.469 488.575 315.593 482.667 315.589C479.6 310.405 476.255 304.972 473.312 299.75C477.593 295.943 482.195 290.195 485.32 285.321C483.731 281.98 473.033 263.837 472.895 262.874C475.074 264.747 482.495 276.009 484.539 278.803C489.506 277.177 491.907 276.606 497.119 276.344C495.415 270.692 492.8 260.64 489.689 256.147L490.077 255.381C495.81 261.449 500.868 268.196 506.294 274.61C510.182 271.82 517.817 266.786 521.049 263.924C517.21 258.987 513.181 254.202 508.97 249.578Z" fill="#FEFEFE" style="fill:#FEFEFE;fill:color(display-p3 0.9961 0.9961 0.9961);fill-opacity:1;"/>
<path d="M827.032 663.345C828.385 665.079 833.4 677.554 834.428 680.044C845.038 705.722 856.877 734.5 857.387 762.633C857.971 794.906 845.556 823.614 823.15 846.557C819.374 849.925 815.715 853.359 811.645 856.358C825.803 828.089 831.428 805.871 835.214 774.344C837.62 754.29 838.63 737.047 836.518 716.717C835.324 705.296 833.567 693.936 831.266 682.682C829.948 676.201 828.258 669.835 827.032 663.345Z" fill="#FEFEFE" style="fill:#FEFEFE;fill:color(display-p3 0.9961 0.9961 0.9961);fill-opacity:1;"/>
<path d="M220.085 319.781C226.328 310.071 236.692 297.083 244.642 288.825C244.586 289.668 225.751 317.294 223.705 320.999L223.36 321.629C226.95 321.812 227.956 322.349 230.979 323.999C238.752 312.822 246.955 301.342 255.683 290.934L255.897 291.708C246.545 304.221 237.199 321.387 229.597 335.116C235.923 331.892 238.317 331.274 245.584 331.908C248.517 327.716 252.249 320.584 255.116 317.276C243.947 341.511 234.422 361.109 226.34 386.906L225.697 385.619C227.521 380.266 229.084 367.536 229.484 361.711C225.293 365.225 223.058 368.446 220.472 373.334C219.291 368.134 219.926 363.839 219.318 358.679C218.021 360.448 216.563 362.572 215.116 364.179C215.654 358.254 217.252 353.113 217.749 347.297C207.635 363.502 198.76 389.509 194.179 407.973L193.038 407.068C195.423 393.935 202.763 366.851 208.547 355.146C207.391 356.396 206.139 358.268 205.122 359.688L189.275 358.71C191.962 349.091 202.255 326.035 208.79 318.835C212.715 318.704 216.248 319.056 220.085 319.781Z" fill="#FEFEFE" style="fill:#FEFEFE;fill:color(display-p3 0.9961 0.9961 0.9961);fill-opacity:1;"/>
<path d="M321.833 331.153C326.939 329.687 334.959 328.848 339.355 326.182C343.047 323.944 352.274 289.221 353.895 283.512C350.781 309.33 352.97 337.817 356.03 363.526C353.71 356.517 349.733 347.58 346.549 340.805C346.915 347.298 347.452 352.808 348.225 359.267C346.375 355.734 342.348 346.488 341 342.86C335.096 344.145 326.501 347.277 319.805 348.995C319.006 353.501 318.287 358.454 316.856 362.762C316.769 358.154 316.727 353.545 316.729 348.936C308.346 349.645 302.31 351.042 294.097 352.83C291.443 349.475 288.567 346.18 285.788 342.92C288.683 333.538 291.116 326.666 294.844 317.58C303.981 321.66 309.285 325.877 319.107 329.234C320.495 319.06 328.311 295.779 331.795 286.142L332.306 287.516C331.402 289.307 330.363 293.992 329.698 296.16C326.18 307.625 324.607 319.662 321.833 331.153Z" fill="#FEFEFE" style="fill:#FEFEFE;fill:color(display-p3 0.9961 0.9961 0.9961);fill-opacity:1;"/>
<path d="M597.488 764.811L597.94 764.934C598.599 766.637 598.709 769.079 599.038 770.958C600.623 779.959 602.837 788.847 604.931 797.747C596.188 809.888 579.724 823.72 564.06 815.434C559.65 812.351 552.303 800.628 553.797 795.376C555.549 789.224 568.93 782.449 574.243 779.178C582.003 774.396 589.877 769.904 597.488 764.811Z" fill="#FEFEFE" style="fill:#FEFEFE;fill:color(display-p3 0.9961 0.9961 0.9961);fill-opacity:1;"/>
<path d="M294.134 824.483C294.816 829.441 292.988 842.425 292.124 847.698C286.812 880.112 269.027 931.504 227.595 925.339C221.862 924.487 218.096 922.564 213.514 919.13C209.771 915.736 207.903 912.944 205.717 908.482C220.081 909.795 239.49 908.693 252.093 901.215C270.558 890.26 282.529 864.63 288.843 844.774C290.881 838.368 292.378 831.017 294.134 824.483Z" fill="#FEFEFE" style="fill:#FEFEFE;fill:color(display-p3 0.9961 0.9961 0.9961);fill-opacity:1;"/>
<path d="M392.028 296.143C393.197 297.852 395.109 304.58 395.777 306.793C400.705 323.125 406.358 342.657 407.975 359.678C405.885 354.651 402.351 347.635 398.993 343.497C388.646 342.761 380.274 343.098 370.192 342.927C368.983 342.455 368.512 341.241 367.796 340.052C367.636 339.786 367.152 339.392 366.894 339.156C365.35 341.51 366.751 350.753 367.12 353.614C363.659 345.244 360.872 335.037 357.86 326.395C356.204 321.645 356.413 315.382 356.644 310.407C372.092 312.274 379.381 312.508 395.023 315.933C394.903 309.463 393.45 302.458 392.028 296.143Z" fill="#FEFEFE" style="fill:#FEFEFE;fill:color(display-p3 0.9961 0.9961 0.9961);fill-opacity:1;"/>
<path d="M252.271 344.703C260.791 338.907 268.432 336.402 274.46 327.251C280.348 318.315 285.469 308.664 291.596 299.96C298.793 289.734 306.631 279.959 313.867 269.715L314.113 270.019C297.544 298.094 284.555 332.701 274.762 363.873C273.528 367.797 272.794 372.694 271.105 376.349C271.622 367.9 270.995 359.496 271.291 351.003C270.053 353.103 269.501 353.994 267.987 355.913C268.743 351.48 269.026 348.683 270.362 344.31C265.1 348.272 260.833 348.254 255.58 351.392C253.592 354.647 252.717 357.518 251.446 361.071C247.019 361.117 242.592 361.083 238.167 360.97C239.716 358.174 241.258 354.551 242.528 351.578C251.549 330.465 264.212 312.293 276.883 293.36L277.295 294.24C270.094 305.231 255.981 332.382 252.271 344.703Z" fill="#FEFEFE" style="fill:#FEFEFE;fill:color(display-p3 0.9961 0.9961 0.9961);fill-opacity:1;"/>
<path d="M589.271 672.57C589.996 673.711 590.237 686.331 590.347 688.68C590.83 701.071 591.731 713.445 593.052 725.775C593.54 730.359 594.049 736.41 594.95 740.788C591.515 743.163 584.599 746.733 580.673 748.977C573.866 752.893 567.292 757.205 560.994 761.899C560.516 762.33 558.324 763.823 557.688 764.275C568.087 733.788 578.099 702.797 589.271 672.57Z" fill="#FEFEFE" style="fill:#FEFEFE;fill:color(display-p3 0.9961 0.9961 0.9961);fill-opacity:1;"/>
<path d="M239.786 275.25L240.387 276.232C223.907 291.796 206.95 315.532 197.073 335.907C185.981 358.786 174.582 384.287 165.922 408.107C168.451 391.477 176.743 368.421 183.37 352.766C179.404 356.225 176.986 359.692 173.921 363.912C176.396 358.641 178.304 353.087 180.252 347.604C178.384 349.821 176.471 352.338 174.657 354.628C177.085 345.754 182.426 332.443 187.654 324.73C190.698 320.239 200.734 312.068 204.984 307.776C216.279 296.37 227.672 285.793 239.786 275.25Z" fill="#FEFEFE" style="fill:#FEFEFE;fill:color(display-p3 0.9961 0.9961 0.9961);fill-opacity:1;"/>
<path d="M360.239 359.92C361.641 361.927 367.126 381.398 368.372 385.262C370.769 392.618 373.409 399.895 376.286 407.077C381.579 420.143 387.776 432.824 394.833 445.027C397.353 449.424 403.654 458.729 405.398 462.598L404.962 463.078C400.924 463.825 396.461 464.457 392.372 464.58C374.491 434.18 364.734 394.665 360.239 359.92Z" fill="#FEFEFE" style="fill:#FEFEFE;fill:color(display-p3 0.9961 0.9961 0.9961);fill-opacity:1;"/>
<path d="M635.409 511.67C652.285 509.748 663.681 515.301 674.085 528.209C669.676 527.518 664.937 528.508 660.484 529.146C656.365 526.403 654.74 525.739 649.984 524.387C638.32 521.843 629.739 523.478 619.2 528.597C615.489 526.603 613.262 525.756 609.187 524.924C617.114 516.649 624.184 513.241 635.409 511.67Z" fill="#FEFEFE" style="fill:#FEFEFE;fill:color(display-p3 0.9961 0.9961 0.9961);fill-opacity:1;"/>
<path d="M268.885 533.856L269.994 534.011C271.041 535.319 270.559 542.471 270.72 545.159C272.352 546.234 273.577 547.066 275.106 548.278L274.964 549.045L273.369 550.132C271.217 555.014 278.589 564.767 282.504 567.49L278.086 570.16C264.893 575.872 263.33 557.513 263.053 548.918C262.829 541.933 261.439 536.322 268.885 533.856Z" fill="#FEFEFE" style="fill:#FEFEFE;fill:color(display-p3 0.9961 0.9961 0.9961);fill-opacity:1;"/>
<path d="M444.567 963.637C445.583 963.672 445.14 963.492 445.894 964.182C444.94 974.079 424.536 993.452 418.039 1001.01C416.065 1003.3 410.835 1009.19 408.455 1010.96L407.189 1010.58L406.987 1010.06C413.145 996.986 432.709 971.422 444.567 963.637Z" fill="#FEFEFE" style="fill:#FEFEFE;fill:color(display-p3 0.9961 0.9961 0.9961);fill-opacity:1;"/>
<path d="M386.875 993.557C388.403 994.031 388.471 993.992 389.861 994.914C384.635 1000.57 381.157 1004.39 376.717 1010.71L355.8 1010.72C354.435 1010.73 354.284 1010.73 352.95 1010.46C353.282 1010.06 353.564 1009.45 354.118 1009.36C363.733 1007.78 378.532 998.984 386.875 993.557Z" fill="#FEFEFE" style="fill:#FEFEFE;fill:color(display-p3 0.9961 0.9961 0.9961);fill-opacity:1;"/>
<path d="M729.04 635.765L729.782 635.703C734.854 671.621 736.536 699.978 728.509 735.76L727.683 735.347C727.898 732.611 728.386 729.2 728.812 726.46C733.511 696.232 732.022 666.176 729.04 635.765Z" fill="#FEFEFE" style="fill:#FEFEFE;fill:color(display-p3 0.9961 0.9961 0.9961);fill-opacity:1;"/>
<path d="M391.932 994.712L399.568 994.409C397.383 999.937 395.371 1005 393.529 1010.64L389.266 1010.74L381.153 1010.69C384.007 1005.31 387.626 999.05 391.932 994.712Z" fill="#FEFEFE" style="fill:#FEFEFE;fill:color(display-p3 0.9961 0.9961 0.9961);fill-opacity:1;"/>
<path d="M708.584 701.695L709.125 701.62L709.401 705.844C709.441 727.768 700.473 764.894 689.754 783.867L689.398 783.792C690.017 780.793 695.559 767.581 697.048 762.83C703.091 743.532 708.532 722.06 708.584 701.695Z" fill="#ECECED" style="fill:#ECECED;fill:color(display-p3 0.9255 0.9255 0.9294);fill-opacity:1;"/>
<path d="M300.942 660.003C305.854 661.338 313.23 663.489 316.938 666.884C314.513 666.914 312.257 667.121 309.849 667.323C304.973 667.617 300.293 668.135 296.007 665.114C295.266 663.779 295.378 664.477 295.711 662.945C297.013 661.404 299.01 660.82 300.942 660.003Z" fill="#FEFEFE" style="fill:#FEFEFE;fill:color(display-p3 0.9961 0.9961 0.9961);fill-opacity:1;"/>
<path d="M708.585 701.695C708.097 694.221 708.826 686.954 708.422 679.042C707.983 670.392 707.856 658.949 706.446 650.272C706.205 648.784 706.35 647.133 706.934 645.899C707.074 652.134 708.132 657.987 708.686 664.222C709.366 672.666 709.819 681.128 710.047 689.598C710.161 692.926 710.161 702.643 709.402 705.844L709.125 701.62L708.585 701.695Z" fill="#7B7B7C" style="fill:#7B7B7C;fill:color(display-p3 0.4824 0.4824 0.4863);fill-opacity:1;"/>
<path d="M784.141 401.577C787.298 408.224 801.825 457.786 801.575 463.191C800.411 462.489 798.945 454.162 798.571 452.445C794.838 435.227 788.286 418.448 783.548 401.775L784.141 401.577Z" fill="#323233" style="fill:#323233;fill:color(display-p3 0.1961 0.1961 0.2000);fill-opacity:1;"/>
<path d="M260.753 586.999C261.122 584.198 261.723 576.25 263.502 574.472C265.108 574.862 266.088 578.085 266.703 577.967C269.236 577.479 271.329 576.263 273.978 575.644C269.955 578.674 263.963 582.503 261.881 587.047L260.753 586.999Z" fill="#FEFEFE" style="fill:#FEFEFE;fill:color(display-p3 0.9961 0.9961 0.9961);fill-opacity:1;"/>
<path d="M659.378 610.903C658.474 611.448 655.76 613.863 654.574 614.75C649.151 618.816 644.728 621.007 638.299 622.908C630.965 625.077 618.19 624.647 611.625 620.774C615.375 620.871 620.013 622.724 624.128 623.027C638.866 624.111 648.347 618.991 659.26 610.104L659.378 610.903Z" fill="#7B7B7C" style="fill:#7B7B7C;fill:color(display-p3 0.4824 0.4824 0.4863);fill-opacity:1;"/>
<path d="M634.614 430.908C642.809 430.334 651.855 431.564 658.175 437.321L658.126 437.847C648.93 432.611 647.292 431.982 636.581 431.869C631.342 431.928 626.169 433.035 621.365 435.123C619.819 435.784 614.11 438.511 612.916 438.608C619.556 433.651 626.538 431.828 634.614 430.908Z" fill="#BCBDBE" style="fill:#BCBDBE;fill:color(display-p3 0.7373 0.7412 0.7451);fill-opacity:1;"/>
<path d="M750.014 393.458C752.074 398.017 753.483 403.028 755.218 407.704C759.763 419.938 762.96 432.086 766.618 444.521L765.885 444.888C765.582 442.508 763.32 435.283 762.552 432.743C758.512 419.686 754.059 406.759 749.197 393.984L750.014 393.458Z" fill="#959798" style="fill:#959798;fill:color(display-p3 0.5843 0.5922 0.5961);fill-opacity:1;"/>
<path d="M663.778 896.807C669.307 895.626 699.823 894.634 705.655 895.683C703.877 895.709 698.862 895.542 697.632 896.153L697.834 896.53L697.461 896.544C692.064 896.702 686.491 896.012 680.843 896.219C675.543 896.416 670.488 897.51 665.512 897.778C664.788 897.215 664.621 897.207 663.778 896.807Z" fill="#959798" style="fill:#959798;fill:color(display-p3 0.5843 0.5922 0.5961);fill-opacity:1;"/>
<path d="M772.45 368.464C776.626 379.402 780.522 390.443 784.14 401.577L783.547 401.775C780.759 391.905 775.454 378.43 771.559 368.876L772.45 368.464Z" fill="#BCBDBE" style="fill:#BCBDBE;fill:color(display-p3 0.7373 0.7412 0.7451);fill-opacity:1;"/>
<path d="M283.328 651.879C284.517 652.793 286.507 658.466 287.923 660.328C289.287 662.123 289.994 662.852 291.583 664.481C285.564 663.349 283.508 657.263 283.328 651.879Z" fill="#ECECED" style="fill:#ECECED;fill:color(display-p3 0.9255 0.9255 0.9294);fill-opacity:1;"/>
<path d="M816.708 443.753C818.425 451.549 819.598 461.116 820.929 469.143L820.503 469.233C819.418 461.503 817.13 451.189 815.628 443.351L816.708 443.753Z" fill="#BCBDBE" style="fill:#BCBDBE;fill:color(display-p3 0.7373 0.7412 0.7451);fill-opacity:1;"/>
<path d="M788.642 742.122C789.441 747.668 789.489 755.69 789.015 761.368C788.839 756.485 787.43 746.86 787.618 743.189L788.04 743.15L788.642 742.122Z" fill="#BCBDBE" style="fill:#BCBDBE;fill:color(display-p3 0.7373 0.7412 0.7451);fill-opacity:1;"/>
<path d="M305.323 670.857L305.752 671.156C306.579 673.645 303.094 675.287 301.197 676.06C300.519 674.993 300.433 675.037 300.311 673.808C301.036 672.719 304.016 671.564 305.323 670.857Z" fill="#ECECED" style="fill:#ECECED;fill:color(display-p3 0.9255 0.9255 0.9294);fill-opacity:1;"/>
<path d="M820.929 469.144C821.654 470.818 823.788 484.443 823.494 486.557C822.572 485.153 820.758 471.796 820.503 469.233L820.929 469.144Z" fill="#323233" style="fill:#323233;fill:color(display-p3 0.1961 0.1961 0.2000);fill-opacity:1;"/>
<path d="M729.04 635.764C728.175 633.38 727.024 624.256 727.459 621.762C728.166 623.654 729.778 633.635 729.782 635.703L729.04 635.764Z" fill="#323233" style="fill:#323233;fill:color(display-p3 0.1961 0.1961 0.2000);fill-opacity:1;"/>
<path d="M276.882 293.359C277.939 291.078 282.819 284.512 284.446 282.251C284.598 282.163 284.751 282.075 284.903 281.988L284.491 282.322L284.661 282.5C283.32 284.876 279.038 292.123 277.294 294.239L276.882 293.359Z" fill="#323233" style="fill:#323233;fill:color(display-p3 0.1961 0.1961 0.2000);fill-opacity:1;"/>
<path d="M249.68 267.158L250.008 267.831C246.907 270.478 243.284 273.427 240.387 276.232L239.786 275.25C243.021 272.476 246.32 269.778 249.68 267.158Z" fill="#BCBDBE" style="fill:#BCBDBE;fill:color(display-p3 0.7373 0.7412 0.7451);fill-opacity:1;"/>
<path d="M759.267 387.011C760.892 391.155 762.596 395.855 763.514 400.211C761.45 396.078 760.185 391.515 758.407 387.354L759.267 387.011Z" fill="#BCBDBE" style="fill:#BCBDBE;fill:color(display-p3 0.7373 0.7412 0.7451);fill-opacity:1;"/>
<path d="M255.683 290.934C256.786 288.661 260.682 284.095 262.471 282.079C261.57 284.315 257.558 290.069 255.897 291.708L255.683 290.934Z" fill="#323233" style="fill:#323233;fill:color(display-p3 0.1961 0.1961 0.2000);fill-opacity:1;"/>
<path d="M297.017 668.873C299.645 668.657 301.228 668.741 303.816 669.215L304.178 669.773C301.035 670.475 299.143 671.551 297.017 668.873Z" fill="#ECECED" style="fill:#ECECED;fill:color(display-p3 0.9255 0.9255 0.9294);fill-opacity:1;"/>
<path d="M766.619 444.521C767.703 448.15 768.784 452.066 769.087 455.844C767.875 453.071 766.768 447.994 765.885 444.888L766.619 444.521Z" fill="#323233" style="fill:#323233;fill:color(display-p3 0.1961 0.1961 0.2000);fill-opacity:1;"/>
<path d="M673.765 256.642C676.026 257.261 678.622 261.57 680.084 263.634C677.555 262.779 675.152 258.894 673.765 256.642Z" fill="#323233" style="fill:#323233;fill:color(display-p3 0.1961 0.1961 0.2000);fill-opacity:1;"/>
<path d="M728.509 735.76C727.705 739.308 727.09 741.714 725.957 745.157C725.808 743.804 727.248 736.757 727.683 735.347L728.509 735.76Z" fill="#BCBDBE" style="fill:#BCBDBE;fill:color(display-p3 0.7373 0.7412 0.7451);fill-opacity:1;"/>
<path d="M483.051 370.65C483.617 374.1 484.026 376.534 484.184 380.001C483.4 377.447 482.677 374.874 482.018 372.285L483.051 370.65Z" fill="#ECECED" style="fill:#ECECED;fill:color(display-p3 0.9255 0.9255 0.9294);fill-opacity:1;"/>
<path d="M191.899 414.225C192.057 412.042 192.645 409.268 193.038 407.068L194.179 407.973C193.748 409.78 192.923 412.83 192.711 414.575L191.899 414.225Z" fill="#ECECED" style="fill:#ECECED;fill:color(display-p3 0.9255 0.9255 0.9294);fill-opacity:1;"/>
<path d="M696.051 251.692C693.486 248.888 690.952 246.152 688.52 243.229C691.159 245.335 694.048 248.329 696.499 250.737L696.051 251.692Z" fill="#BCBDBE" style="fill:#BCBDBE;fill:color(display-p3 0.7373 0.7412 0.7451);fill-opacity:1;"/>
<path d="M489.689 256.147C487.663 253.898 485.626 251.271 483.817 248.842L484.145 248.878C486.924 251.455 487.786 252.372 490.077 255.381L489.689 256.147Z" fill="#666665" style="fill:#666665;fill:color(display-p3 0.4000 0.4000 0.3961);fill-opacity:1;"/>
<path d="M249.681 267.158C250.211 266.546 255.772 262.285 256.769 261.504L256.67 262.775C254.056 264.337 252.392 266.226 250.009 267.831L249.681 267.158Z" fill="#666665" style="fill:#666665;fill:color(display-p3 0.4000 0.4000 0.3961);fill-opacity:1;"/>
<path d="M466.765 254.99C468.771 256.32 471.403 260.277 472.75 262.345C470.266 261.296 468.143 257.308 466.765 254.99Z" fill="#323233" style="fill:#323233;fill:color(display-p3 0.1961 0.1961 0.2000);fill-opacity:1;"/>
<path d="M435.618 285.218C434.577 282.818 433.836 281.25 433.198 278.678L433.284 278.978L433.891 278.95C434.706 280.46 435.498 282.67 436.145 284.314L435.618 285.218Z" fill="#666665" style="fill:#666665;fill:color(display-p3 0.4000 0.4000 0.3961);fill-opacity:1;"/>
<path d="M331.796 286.141C332.227 284.822 332.866 282.626 333.415 281.437L333.971 282.188L334.016 281.019C334.184 282.334 332.857 286.203 332.307 287.516L331.796 286.141Z" fill="#666665" style="fill:#666665;fill:color(display-p3 0.4000 0.4000 0.3961);fill-opacity:1;"/>
<path d="M223.103 396.032C223.871 392.628 224.845 389.024 225.697 385.619L226.34 386.906C225.326 390.284 224.407 392.743 223.103 396.032Z" fill="#7B7B7C" style="fill:#7B7B7C;fill:color(display-p3 0.4824 0.4824 0.4863);fill-opacity:1;"/>
<path d="M192.71 414.575C192.412 416.077 191.626 420.692 190.982 421.838C190.515 420.356 191.53 415.949 191.899 414.225L192.71 414.575Z" fill="#7B7B7C" style="fill:#7B7B7C;fill:color(display-p3 0.4824 0.4824 0.4863);fill-opacity:1;"/>
<path d="M659.259 610.104C660.304 608.923 661.288 607.527 662.719 607.026C662.526 608.563 660.616 609.894 659.377 610.904L659.259 610.104Z" fill="#323233" style="fill:#323233;fill:color(display-p3 0.1961 0.1961 0.2000);fill-opacity:1;"/>
<path d="M260.753 586.999L261.881 587.047C261.368 588.9 260.939 590.45 260.558 592.352L259.711 593.094C260.027 591.056 260.375 589.028 260.753 586.999Z" fill="#BCBDBE" style="fill:#BCBDBE;fill:color(display-p3 0.7373 0.7412 0.7451);fill-opacity:1;"/>
<path d="M256.77 261.504C257.788 260.433 258.309 260.037 259.445 259.151L260.332 259.172L260.363 258.934C259.717 260.649 258.088 261.665 256.67 262.774L256.77 261.504Z" fill="#323233" style="fill:#323233;fill:color(display-p3 0.1961 0.1961 0.2000);fill-opacity:1;"/>
<path d="M686.544 788.904L686.882 789.233C686.776 790.722 685.656 792.114 684.805 793.523L684.501 793.462C684.572 792.096 685.815 790.247 686.544 788.904Z" fill="#323233" style="fill:#323233;fill:color(display-p3 0.1961 0.1961 0.2000);fill-opacity:1;"/>
</svg>
